<?xml version="1.0" encoding="utf-8"?>
<!-- Generator: Adobe Illustrator 26.5.0, SVG Export Plug-In . SVG Version: 6.00 Build 0)  -->
<svg version="1.1" xmlns="http://www.w3.org/2000/svg" xmlns:xlink="http://www.w3.org/1999/xlink" x="0px" y="0px"
	 viewBox="0 0 1000 541.6" style="enable-background:new 0 0 1000 541.6;" xml:space="preserve">
<style type="text/css">
	.st0{fill:#4EDDC8;}
	.st1{fill:#0E211E;}
	.st2{opacity:0.15;}
	.st3{fill:#FFFF79;}
	.st4{fill:#ED5D5D;}
	.st5{fill:#6EFFEC;}
	.st6{fill:#FFFFFF;}
</style>
<g id="bg">
</g>
<g id="dino">
</g>
<g id="fill">
</g>
<g id="Layer_1">
</g>
<g id="black">
</g>
<g id="color">
</g>
<g id="mascot">
	<g>
		<path d="M686.7,34.3C680.5,18,671.1,11.1,668,8.8l-0.4-0.3c-10.8-8.1-22.9-8.3-28-8.4h-0.5c-0.1,0-0.5,0-0.5,0
			c-15.5,0-26.9,6.4-33.7,10.3c-7.8,4.4-15,9.9-21.4,16.4c-2.9,2.9-5.7,6.2-8.3,9.6l-0.9,1.2l-1.5,0.3c-1.3,0.2-2.7,0.5-4,0.9
			c-6.1,1.7-11.6,4.6-16.2,8.8c-1.1,0.9-2.1,2-3.1,3.1c-3,3.3-5.5,7.2-7.2,11.4c-1.4,3.3-2.3,6.9-2.9,10.6
			c-0.9,5.9-0.4,10.6-0.1,12.3c1,6.3,3.4,12.3,7.1,17.7c0.2,0.3,0.5,0.7,0.7,1l0.9,1.2l-0.1,1.4c-0.2,3.3,0.2,6.6,1.1,9.6
			c2.1,7.4,13.4,20.5,20,23.3l3.3,1.4l-1,3.4c-2.9,9.9-5.9,19.5-9,28.7c-1.4,4.1-2.9,8.8-6.6,13.6c-0.4,0.6-0.9,1.1-1.5,1.8
			c-1.9,2.2-5.2,5.4-10,8.2c-5.9,3.5-9.8,4.1-17.1,5.2c-3.7,0.5-9.3,1.3-15.9,2.9c-9.2,2.2-24.6,6-40.3,17.2
			c-19.2,13.7-31.6,32.5-32.9,34.6c-0.5,0.8-1,1.5-1.4,2.3c-2.8,4.5-4.1,6.5-6.2,7.3c-1,0.4-2.2,0.7-3.5,0.7c-1.4,0-2.8-0.3-4-0.8
			c-2.7-1.3-4.8-5-8.6-11.9c-1.3-2.4-2.2-4.4-3.1-6.4c-1.1-2.4-2.2-4.9-3.8-7.2c-2.3-3.4-5.3-5.9-9-7.6c-3.1-1.4-6.6-2.2-10.2-2.2
			c-4.7,0-8.6,1.3-10.5,2l-0.2,0.1l-0.4,0.2c-0.7,0.3-1.2,0.6-1.8,0.8l-0.8,0.4l0,0l-0.5,0.3c-5.1,3-9.4,7.7-12.6,14.1
			c-2.6,5-4.4,11.1-5.6,17.9c-2.1,12.2-1.5,26.3,1.4,38.6l0.1,0.3c0.2,0.8,0.4,1.4,0.6,2.1l0.1,0.4c0.9,2.8,2.1,5.9,3.5,9.1l2.2,4.8
			l-5.2,0.7c-5,0.7-9.6,1.9-14.1,3.6l-0.1,0.1c-5.8,2.2-12.9,5-18,11.1c-2.1,2.5-3.5,5.3-4.4,8.3c-0.9,3.2-1.1,6.5-0.6,9.8
			c0.4,2.3,1.1,4.7,2.2,7.2c0.1,0.2,0.1,0.3,0.2,0.5c0.1,0.2,0.2,0.4,0.3,0.6c8.2,18.8,31.7,31,37.1,33c18.8,7.1,40.1,7.5,59.3,1.5
			c0.2,0.1,0.4,0.3,0.6,0.4c-4.1,3.6-9.1,8.4-11.5,15c-1.1,3-1.5,6.1-1.3,9.2c0.6,7.9,5.7,19,26.7,26.7c6.1,2.2,12.9,4,19.1,4.8
			c3.7,0.5,7.4,0.8,11.1,0.8c2.1,0,4.2-0.1,6.3-0.3c0.1,0,0.1,0,0.2,0c6.3-0.3,25.3-4.2,46.5-22.7c12.3-10.8,23.8-34.8,26-39.5v0
			c8.5-5.2,16.7-11.4,24.9-19.5c-0.9,6.3-1.1,16.4,5.3,23.2c13.9,14.8,20.6,10.1,46.4-14.7c0.1-0.1,0.2-0.2,0.2-0.3
			c0,0,8.7-10,11.9-14.3l0.1-0.2l0.4-0.6c4.4-5.9,6.6-9.7,7.9-12.1c5.3-9.7,8.5-15.6,8.7-24.8c0.1-4.5-0.6-8.8-2.1-13.1
			c-1.3-3.8-3.1-7.2-5.1-10.7l-0.5-1l-0.3-0.6l-0.2-0.3l-0.2-0.3c-0.8-1.5-1.5-2.8-2.2-4.1c-4.4-8.3-7.4-16.2-10-23.4l-0.5-1.4
			l0.5-1.4c0,0,0.3-0.8,0.7-2c1.4-3.7,4.6-12.3,7.8-21.2c0,0,0,0,0,0c2.8-7.8,5.6-15.7,7.1-20.9c5.6-18.4,8.9-33.7,10.7-43.3
			c0.3-1.5,0.6-3.3,1-5.5c2.3-13.5,4-27.4,4.9-41.2l0.1-1.5l1.1-1.1c5.7-5.6,10.7-11.5,14.9-17.6c4-5.8,7.5-11.9,10.3-18.3
			c2.4-5.4,5-11.5,6-20.1C694.3,76.7,695.8,58,686.7,34.3z"/>
		<path class="st0" d="M676.5,43.6c-6.9-18.2-14.5-22.9-16.8-24.7c-7.4-5.6-16-5.7-20.4-5.8c-0.2,0-0.5,0-0.7,0
			c-2.3,0-4.5,0.2-6.5,0.5c-0.6,0.1-1.1,0.2-1.6,0.3c-1.1,0.2-2.2,0.5-3.3,0.8c-0.7,0.2-1.5,0.4-2.2,0.6c-1,0.3-1.9,0.7-2.8,1
			c-0.5,0.2-1,0.4-1.5,0.6c-0.6,0.2-1.1,0.5-1.7,0.7c-0.4,0.2-0.9,0.4-1.3,0.6c-0.8,0.4-1.6,0.8-2.4,1.2c-0.5,0.2-0.9,0.5-1.4,0.7
			c-0.9,0.5-1.8,1-2.6,1.4c-14.9,8.4-24.4,20-30,28.5c-0.3,0-0.6,0-1,0c-0.7,0-1.5,0-2.5,0.1c-0.2,0-0.4,0-0.7,0.1
			c-0.1,0-0.3,0-0.4,0c-0.1,0-0.2,0-0.3,0c-0.2,0-0.4,0-0.6,0.1c-0.4,0-0.7,0.1-1.1,0.2c-0.1,0-0.3,0-0.4,0.1
			c-0.1,0-0.3,0.1-0.4,0.1c-0.2,0.1-0.5,0.1-0.8,0.2c-0.7,0.2-1.5,0.4-2.2,0.6c-0.2,0-0.3,0.1-0.5,0.2c-0.1,0-0.3,0.1-0.4,0.1
			c-0.9,0.3-1.7,0.7-2.6,1.1c-1.4,0.7-2.8,1.5-4.2,2.5c-0.7,0.5-1.4,1.1-2.1,1.7c-0.8,0.7-1.5,1.4-2.1,2.1c-8.9,9.8-7.1,22.7-7,23.6
			c1.5,10.2,8.1,16.2,10.1,17.9c-1,2.5-1.8,7.6-0.5,12.1c1.1,3.9,3.2,7.6,8.7,12.4c4.2,3.6,8.2,6.9,16.6,11c0,0.2-0.1,0.4-0.1,0.5
			c-4.5,15.9-8.7,29.3-12.2,39.8c-1.7,5.1-3.7,11-8.6,17.4c-0.4,0.6-1.1,1.5-2.1,2.5c-2.5,2.8-6.8,7.1-13.1,10.8
			c-12.5,7.5-20,5.5-36.6,9.6c-8.6,2.1-22.2,5.4-35.8,15.1c-0.7,0.5-1.4,1.1-2.2,1.6c-2.1,1.6-4.2,3.3-6.1,5c-0.4,0.3-0.8,0.7-1.1,1
			c-0.4,0.3-0.8,0.7-1.1,1c-1.3,1.2-2.5,2.4-3.7,3.6c-0.3,0.3-0.6,0.6-0.9,0.9c-0.3,0.3-0.6,0.6-0.8,0.9c-5.7,6-9.8,11.6-12,14.6
			c-0.1,0.2-0.3,0.4-0.4,0.5c-0.1,0.1-0.2,0.2-0.2,0.4c-0.3,0.4-0.5,0.8-0.7,1c0,0.1-0.1,0.1-0.1,0.1c-0.1,0.2-0.2,0.3-0.2,0.3
			c-3.7,5.8-6.6,11.7-13.6,14.6c-2.6,1.1-5.5,1.7-8.5,1.7c-3.3,0-6.6-0.7-9.6-2.2c-6.7-3.2-10.1-9.5-14.4-17.4
			c-4.8-8.9-5.1-13.5-9.8-15.6c-0.8-0.4-1.6-0.6-2.4-0.8c-0.8-0.1-1.6-0.2-2.4-0.2c-3.1,0-5.6,1-6.1,1.2c-0.4,0.2-0.9,0.4-1.3,0.6
			c-12.7,7.1-16.1,35.4-10.8,56.6c0.1,0.5,0.3,1.1,0.5,1.8c1.6,5.2,3.1,10,8.5,18.4c4.5,1.1,11.7,3.7,17.4,4.3
			c9,0.9,17,2.5,23.1,1.8c-3,2-7.1,4.4-12.5,5.9c-7.2,2.1-13.3,2.4-18.4,1.7c-1.4-0.1-2.9-0.3-4.3-0.4c-4.4-0.4-9-0.8-13.8-0.8
			c-5.4,0-10.8,0.5-16.2,1.8c-0.8,0.2-1.6,0.4-2.3,0.7c-1,0.3-2,0.6-2.9,1c-4.5,1.8-9.8,3.8-12.7,7.3c-0.9,1-1.5,2.2-1.9,3.5
			c-1.9,6.8,4.5,15,12.4,21.7c4.8,4.1,10.3,7.6,14.8,10.1c4.9,2.6,9.8,4.5,14.4,5.7c0.1,0,0.2,0,0.3,0.1c0,0,0,0,0.1,0
			c0,0,0.1,0,0.1,0c2.2,0.7,20.5,6.2,44.7-5.2c0.8-0.3,1.6-0.7,2.4-1c0.3-0.2,0.7-0.3,1-0.5c0.5-0.3,1.1-0.5,1.6-0.8
			c0.4-0.2,0.8-0.4,1.2-0.7c0.3-0.1,0.6-0.3,0.8-0.5c0.4-0.2,0.8-0.4,1.2-0.7c0.3-0.2,0.7-0.4,1-0.6c0.4-0.2,0.7-0.4,1.1-0.7
			c1.6-1,3.2-2.1,4.8-3.3c0.6-0.4,1.1-0.8,1.7-1.2c0.5-0.4,1.1-0.8,1.6-1.2c0.5-0.4,1.1-0.8,1.6-1.3c0.4-0.3,0.8-0.6,1.1-0.9
			c0.5-0.4,1.1-0.9,1.6-1.3c2.2-1.9,4.4-3.8,6.6-5.7c1.1-0.9,2.1-1.9,3.2-2.8c1-0.9,2.1-1.9,3.1-2.8c2-1.8,4.1-3.5,6.1-5.2
			c-0.3,1.4-0.8,3.2-1.5,5.2c-0.3,0.9-0.6,1.8-1,2.7v0c-0.2,0.4-0.3,0.9-0.5,1.3s-0.4,0.9-0.6,1.4c-0.1,0.2-0.1,0.4-0.2,0.5
			c-0.1,0.2-0.2,0.3-0.2,0.5c-0.1,0.2-0.2,0.4-0.3,0.7c-0.1,0.1-0.1,0.3-0.2,0.4v0l0,0c-0.1,0.4-0.3,0.7-0.5,1.1l0,0
			c0,0.1-0.1,0.2-0.1,0.3c-0.1,0.3-0.3,0.6-0.4,0.8c0,0.1-0.1,0.2-0.1,0.3c-0.2,0.4-0.4,0.8-0.7,1.2c0,0.1-0.1,0.1-0.1,0.2
			c-0.1,0.3-0.3,0.5-0.4,0.8c-0.1,0.1-0.1,0.2-0.2,0.4c-0.4,0.7-0.8,1.3-1.2,2c-0.2,0.4-0.5,0.8-0.8,1.2c-0.3,0.4-0.5,0.8-0.8,1.2
			c0,0,0,0.1-0.1,0.1c-0.2,0.3-0.4,0.7-0.7,1c-0.3,0.4-0.6,0.8-0.9,1.2c-0.2,0.3-0.5,0.7-0.7,1v0c0,0,0,0,0,0c0,0.1-0.1,0.1-0.1,0.2
			v0c-0.1,0.1-0.1,0.1-0.2,0.2c-0.4,0.5-0.7,0.9-1.1,1.4c-0.2,0.3-0.5,0.6-0.7,0.9c-0.2,0.3-0.5,0.6-0.7,0.9c0,0-0.1,0.1-0.1,0.1
			c-0.5,0.5-1,1.1-1.4,1.6c-0.5,0.5-1,1.1-1.5,1.6l-0.3,0.3c-0.2,0.2-0.4,0.4-0.6,0.6c-0.5,0.4-1.1,1.1-1.8,1.6
			c-0.2,0.2-0.4,0.3-0.6,0.5c-0.1,0.1-0.2,0.2-0.3,0.2c-1.2,1-2.3,2-3.5,2.8c0,1.3,5.6,3.9,21.7,5.5c1.1,0.1,2.2,0.2,3.4,0.3
			c9.8,1.2,20.1,0.9,30.3-0.8c8.8-1.4,17.5-3.9,25.9-7.2c1.9-0.7,3.7-1.5,5.6-2.3c2.2-1,4.4-2.1,6.6-3.2c1.3-0.7,2.6-1.4,3.9-2.1
			c2-1.1,3.9-2.3,5.9-3.6c18.7-12.3,38.2-33.5,53-60c1.6-2.8,3.1-5.6,4.5-8.5c8.8-17.5,17.6-37.3,19.8-42.4c0-0.1,0.1-0.2,0.1-0.2
			c0-0.1,0.1-0.1,0.1-0.2c0.1-0.1,0.1-0.3,0.2-0.4c0-0.1,0.1-0.2,0.1-0.3c0,0,0-0.1,0-0.1c0.7-1.7,1.5-3.5,2.2-5.4v0
			c3.8-9.6,7.8-20.5,11.5-32.8v0c6.2-20.5,9.3-36.5,10.3-41.9c0.3-1.7,0.7-3.5,1-5.4c0.2-1.3,0.4-2.6,0.7-3.9v0
			c2-12.2,3.7-26.5,4.4-42.6c15.7-13.7,23.3-27.6,27-36.1c2.3-5.3,4.3-9.9,5-16.4C682.1,68.4,683.2,61.2,676.5,43.6z M571.1,301.3
			c-4.1,20-16.5,38.3-33.2,49.1c-11.5,7.9-25.3,12.6-36.9,12.6c-8.8,0-16.3-2.5-22.3-7.6c-0.6-0.4-1.1-0.9-1.6-1.4l0,0l0,0
			c-10.3-11.4,1.4-23.1,7.7-29.4c6.5-6.8,11.9-12.6,17.1-18.6c6.1-7.2,13-15.4,16.1-25.1c0.5-1.4,0.9-2.9,1.3-4.3
			c0.9-2.9,1.7-6,3.2-8.8l1.2-2.3l0.7,2.5c1.2,4.5,1.5,7.8,0.8,11.4c-0.9,15.6-9,28.1-16.7,38.1c-2.5,3.4-5.5,6.6-8.4,9.7
			c-4.3,4.7-8.8,9.6-11.9,15c-0.2,0.3-0.4,0.8-0.5,1.1c0,0,0,0,0,0c0.1,0.1,0.2,0.2,0.2,0.3c3.2,2.5,7.5,3.7,12.6,3.7
			c3.1,0,6.4-0.4,10-1.3c42.1-13.4,60.9-47.5,50.4-91.2l-1.3-5.3l3.1,4.5c2.2,3.2,4,6.6,5.5,10.1
			C572.6,275.5,573.8,288.3,571.1,301.3z"/>
		<path d="M523.2,403.2c0,0-0.1,0.1-0.1,0.2c-0.4,0.7-1.7,2.8-1.9,3.1c-0.3,0.5-0.7,1.1-1,1.6c-0.3,0.6-0.7,1.1-1.1,1.6
			c-1,1.5-2.1,3-3.2,4.4c-0.2,0.3-0.5,0.6-0.7,0.9c-0.2,0.3-0.5,0.6-0.7,0.9c-0.3,0.3-0.5,0.7-0.8,1c-0.2,0.2-0.4,0.5-0.6,0.7
			c-0.3,0.3-0.6,0.7-0.9,1c-0.4,0.4-0.8,0.8-1.2,1.2c-0.3,0.3-0.5,0.5-0.8,0.8c-0.6,0.6-1.2,1.1-1.8,1.7
			c-18.5,18.7-37.3,18.8-37.8,18.9c-0.1,0-0.2,0-0.2,0c-4.4,0.4-9.3,0.3-14.5-0.4c-4.7-0.7-10.6-2.1-16.2-4.1
			c-9.2-3.4-17.4-8.5-17.9-15.1c-0.1-1.3,0.1-2.5,0.5-3.7c1.4-4,5.4-7.5,8.9-10.5c0.7-0.6,1.5-1.2,2.3-1.8c0.2-0.1,0.3-0.3,0.5-0.4
			c11.8,4.5,24.5,5.6,39.3,6c16.2-0.1,33.1-2,48.6-7.3C522.4,403.6,522.8,403.4,523.2,403.2z"/>
		<path class="st0" d="M522,403.7c-15.5,5.3-32.4,7.2-48.6,7.3c-14.8-0.4-27.5-1.5-39.3-6c-0.2,0.1-0.3,0.2-0.5,0.4
			c-0.8,0.6-1.5,1.2-2.3,1.8c-3.4,3-7.4,6.5-8.9,10.5c-0.4,1.2-0.6,2.4-0.5,3.7c0.5,6.6,8.7,11.8,17.9,15.1c5.6,2,11.5,3.4,16.2,4.1
			c5.2,0.7,10,0.8,14.5,0.4c0.1,0,0.2,0,0.2,0c0.5,0,19.3-0.2,37.8-18.9c0.6-0.5,1.2-1.1,1.8-1.7c0.3-0.2,0.5-0.5,0.8-0.8
			c0.4-0.4,0.8-0.8,1.2-1.2c0.3-0.3,0.6-0.7,0.9-1c0.2-0.2,0.4-0.4,0.6-0.7c0.3-0.3,0.5-0.6,0.8-1c0.2-0.3,0.5-0.6,0.7-0.9
			c0.2-0.3,0.5-0.6,0.7-0.9c1.1-1.4,2.2-2.9,3.2-4.4c0.4-0.5,0.7-1.1,1.1-1.6c0.3-0.5,0.7-1.1,1-1.6c0.2-0.3,1.5-2.4,1.9-3.1
			c0-0.1,0.1-0.1,0.1-0.2C522.8,403.4,522.4,403.6,522,403.7z"/>
		<path class="st1" d="M645.5,354.2C645.6,354.2,645.6,354.1,645.5,354.2C645.6,354.2,645.6,354.2,645.5,354.2z"/>
		<path d="M523.2,403.2c0,0-0.1,0.1-0.1,0.2c-0.4,0.1-0.7,0.3-1.1,0.4C522.4,403.6,522.8,403.4,523.2,403.2z"/>
		<path d="M635,330c-0.1,5.7-2.2,9.5-6.2,17c-1.4,2.7-6.5,11.7-23.4,29c-3.6,3.7-6.4,6.4-8.6,8.3c-1.1,0.9-2,1.7-2.8,2.3
			c-0.6,0.4-1.1,0.8-1.5,1c-0.3,0.2-0.6,0.4-0.9,0.5c-0.1,0-0.2,0.1-0.3,0.1c-0.1,0-0.2,0.1-0.3,0.1c-0.1,0-0.1,0-0.2,0.1
			c-0.1,0-0.2,0.1-0.3,0.1c-0.1,0-0.1,0-0.2,0c-0.1,0-0.2,0-0.3,0c-0.1,0-0.2,0-0.3,0c0,0,0,0-0.1,0c-0.2,0-0.3,0-0.5,0
			c0,0-0.1,0-0.1,0c-0.1,0-0.2,0-0.3,0c-2.1-0.5-3.6-2.4-4.7-4.8c-0.2-0.5-0.5-1.1-0.7-1.7c-0.1-0.3-0.2-0.7-0.3-1.1
			c-0.1-0.3-0.2-0.5-0.2-0.8c-0.1-0.2-0.1-0.4-0.2-0.6c-0.3-1.1-0.5-2.1-0.7-3.2c0-0.3-0.1-0.5-0.1-0.8c-0.1-0.8-0.2-1.6-0.3-2.4
			c-0.2-1.6-0.2-3.1-0.2-4.3c0-0.6,0-1.2,0-1.8c0,0,0,0,0,0c0,0,0,0,0,0c0.2-3.7,1-7.3,2.2-10.7c1.4-1.8,2.8-3.7,4.2-5.6
			c4.6-6.3,9.2-13.4,13.8-21.5c5.2-9.1,12.1-22.5,18.5-36c2.5,6.3,5,11.5,7.2,15.6c1,1.9,2,3.7,2.9,5.3C633,319.7,635.1,324,635,330
			z"/>
		<path d="M450.6,375.7C450.6,375.7,450.6,375.7,450.6,375.7L450.6,375.7C450.6,375.7,450.6,375.7,450.6,375.7z"/>
		<path d="M441.4,385.5c-0.1,0.1-0.2,0.2-0.3,0.2c0,0,0,0,0,0C441.2,385.7,441.3,385.6,441.4,385.5z"/>
		<path d="M457.8,363.9c0,0.1-0.1,0.2-0.1,0.3c-0.1,0.3-0.3,0.6-0.4,0.8c0.1-0.3,0.3-0.5,0.4-0.8c0,0,0,0,0,0
			C457.7,364.1,457.8,364,457.8,363.9z"/>
		<path d="M458.3,362.8c-0.2,0.4-0.3,0.7-0.5,1.1l0,0c0,0,0,0,0,0C458,363.6,458.1,363.2,458.3,362.8z"/>
		<polygon points="458.3,362.8 458.3,362.8 458.3,362.8 		"/>
		<path d="M392.9,244.4c-0.8-0.4-1.6-0.6-2.4-0.8C391.3,243.8,392.1,244,392.9,244.4z"/>
		<path d="M399.7,270.2c-0.7,2.5-2.8,5.2-5.5,5.5c-4.6,0.5-10-6.5-8-11.2c1.4-3.1,6.2-5.4,10-3.4
			C399.7,262.9,400.6,267.1,399.7,270.2z"/>
		<path d="M416.4,294.2c-2.8,3.2-8.5,3.2-12.1,0.4c-3.8-3-4.5-8.4-2.5-12.1c0.3-0.6,2.1-3.7,5.5-4.4c4.6-0.8,9.2,3.6,10.4,8.1
			C417.9,286.9,419,291.2,416.4,294.2z"/>
		<path d="M571.1,301.3c-4.1,20-16.5,38.3-33.2,49.1c-11.5,7.9-25.3,12.6-36.9,12.6c-8.8,0-16.3-2.5-22.3-7.6
			c-0.6-0.4-1.1-0.9-1.6-1.4l0,0l0,0c-10.3-11.4,1.4-23.1,7.7-29.4c6.5-6.8,11.9-12.6,17.1-18.6c6.1-7.2,13-15.4,16.1-25.1
			c0.5-1.4,0.9-2.9,1.3-4.3c0.9-2.9,1.7-6,3.2-8.8l1.2-2.3l0.7,2.5c1.2,4.5,1.5,7.8,0.8,11.4c-0.9,15.6-9,28.1-16.7,38.1
			c-2.5,3.4-5.5,6.6-8.4,9.7c-4.3,4.7-8.8,9.6-11.9,15c-0.2,0.3-0.4,0.8-0.5,1.1c0,0,0,0,0,0c0.1,0.1,0.2,0.2,0.2,0.3
			c3.2,2.5,7.5,3.7,12.6,3.7c3.1,0,6.4-0.4,10-1.3c42.1-13.4,60.9-47.5,50.4-91.2l-1.3-5.3l3.1,4.5c2.2,3.2,4,6.6,5.5,10.1
			C572.6,275.5,573.8,288.3,571.1,301.3z"/>
		<path d="M584.6,63c-1.9,0.5-10.6,0.6-15.9,8.8c-4.6,7-1.7,17.1-1.5,19.3c-7.4-5.2-8.2-16.7-4.2-22.7
			C567.2,62.1,576.8,59.1,584.6,63z"/>
		<path d="M580.9,212.3c-1.5,5.7-6.9,7.3-7.5,7.5c-0.7,0.2-5.4,1.5-8.1-1.9c-0.2-0.3-1.9-2.5-1.5-5.1c0.1-0.7,0.4-1.7,1.6-3.1
			c2.7-3.2,5.9-4.3,6.8-4.6c3-1,6.2-2,7.9,0.2C582.1,207.5,581.1,211.7,580.9,212.3z"/>
		<path d="M591.7,186.7c-0.5,0.5-3.8,4.1-7.9,2.6c-0.3-0.1-2.9-1.2-3.9-3.6c-0.3-0.7-0.5-1.6-0.2-3.5c0.6-4.1,2.7-6.8,3.4-7.5
			c2.1-2.4,4.3-4.9,6.8-4c2.7,1,4,5.1,4.2,5.7C595.9,182,592.1,186.2,591.7,186.7z"/>
		<path d="M596.7,158.8c-0.3,0.3-2.3,2.5-4.7,1.5c-0.2-0.1-1.7-0.7-2.3-2.2c-0.2-0.4-0.3-1-0.1-2.1c0.4-2.5,1.6-4,2-4.5
			c1.2-1.4,2.5-2.9,4.1-2.4c1.6,0.6,2.4,3,2.5,3.4C599.2,156.1,597,158.6,596.7,158.8z"/>
		<path d="M668.1,86.4c-5.9,9.4-10,11.8-19,15.6c-10.9,4.6-20.8,3.8-28.9,1.1c-10-3.4-13.7-7.5-28.5-13.7c-3.6-1.5-6.7-2.3-8.8-2.8
			c4.3-2.5,10.6-6.6,16.9-12.9C613,60.6,611,53.4,621.2,45.6c11.8-9.1,31.4-12.3,42.4-3.5c4,3.2,5.8,7.1,7.1,9.8
			C675.7,62.8,674.5,76.4,668.1,86.4z"/>
		<path d="M457.8,363.9C457.8,363.9,457.8,363.9,457.8,363.9L457.8,363.9L457.8,363.9z M457.7,364.2
			C457.7,364.2,457.7,364.2,457.7,364.2c-0.1,0.3-0.3,0.5-0.4,0.8C457.4,364.8,457.5,364.5,457.7,364.2c0.1-0.1,0.1-0.2,0.1-0.3
			C457.8,364,457.7,364.1,457.7,364.2z"/>
		<path d="M457.7,364.2C457.7,364.2,457.7,364.2,457.7,364.2c-0.1,0.3-0.3,0.5-0.4,0.8C457.4,364.8,457.5,364.5,457.7,364.2
			c0.1-0.1,0.1-0.2,0.1-0.3C457.8,364,457.7,364.1,457.7,364.2z M457.8,363.9C457.8,363.9,457.8,363.9,457.8,363.9L457.8,363.9
			L457.8,363.9z M568,264.2c-1.5-3.5-3.3-6.9-5.5-10.1l-3.1-4.5l1.3,5.3c10.6,43.7-8.2,77.8-50.4,91.2c-3.5,0.9-6.9,1.3-10,1.3
			c-5.1,0-9.4-1.2-12.6-3.7c-0.1,0-0.1-0.1-0.2-0.3c0,0,0,0,0,0c0.1-0.3,0.3-0.8,0.5-1.1c3.1-5.4,7.6-10.3,11.9-15
			c2.9-3.1,5.8-6.4,8.4-9.7c7.7-10.1,15.8-22.5,16.7-38.1c0.7-3.6,0.5-6.9-0.8-11.4l-0.7-2.5l-1.2,2.3c-1.4,2.8-2.3,5.9-3.2,8.8
			c-0.4,1.4-0.8,2.9-1.3,4.3c-3.1,9.8-10,17.9-16.1,25.1c-5.2,6-10.6,11.8-17.1,18.6c-6.3,6.3-18,18-7.7,29.4l0,0l0,0
			c0.5,0.5,1.1,1,1.6,1.4c6,5,13.5,7.6,22.3,7.6c11.6,0,25.4-4.7,36.9-12.6c16.7-10.7,29.1-29.1,33.2-49.1
			C573.8,288.3,572.6,275.5,568,264.2z M583.5,356.3c-1.2,3.4-2,7-2.2,10.7l6.3-16.3C586.3,352.6,584.9,354.5,583.5,356.3z"/>
		<path class="st2" d="M441.4,385.5c-0.1,0.1-0.2,0.2-0.3,0.2c0,0,0,0,0,0C441.2,385.7,441.3,385.6,441.4,385.5z"/>
		<path class="st2" d="M450.6,375.7C450.6,375.7,450.6,375.7,450.6,375.7L450.6,375.7C450.6,375.7,450.6,375.7,450.6,375.7z"/>
		<path class="st2" d="M457.8,363.9c0,0.1-0.1,0.2-0.1,0.3l0,0C457.7,364.1,457.8,364,457.8,363.9z"/>
		<path class="st2" d="M457.8,363.9L457.8,363.9C457.8,363.9,457.8,363.9,457.8,363.9L457.8,363.9z"/>
		<path class="st0" d="M563,68.4c-4,6-3.2,17.5,4.2,22.7c-0.2-2.2-3.1-12.3,1.5-19.3c5.3-8.2,14-8.3,15.9-8.8
			C576.8,59.1,567.2,62.1,563,68.4z M580.3,205.3c-1.7-2.1-4.9-1.1-7.9-0.2c-1,0.3-4.2,1.4-6.8,4.6c-1.2,1.5-1.5,2.4-1.6,3.1
			c-0.4,2.6,1.2,4.8,1.5,5.1c2.6,3.4,7.4,2.1,8.1,1.9c0.6-0.2,6-1.8,7.5-7.5C581.1,211.7,582.1,207.5,580.3,205.3z M594.2,176.4
			c-0.2-0.6-1.5-4.7-4.2-5.7c-2.6-0.9-4.8,1.6-6.8,4c-0.7,0.8-2.8,3.4-3.4,7.5c-0.3,1.9,0,2.8,0.2,3.5c1,2.4,3.6,3.5,3.9,3.6
			c4,1.5,7.4-2.1,7.9-2.6C592.1,186.2,595.9,182,594.2,176.4z M598.2,152.7c-0.1-0.4-0.9-2.8-2.5-3.4c-1.5-0.6-2.8,0.9-4.1,2.4
			c-0.4,0.5-1.7,2-2,4.5c-0.2,1.1,0,1.7,0.1,2.1c0.6,1.5,2.1,2.1,2.3,2.2c2.4,0.9,4.4-1.2,4.7-1.5
			C597,158.6,599.2,156.1,598.2,152.7z M670.6,51.9c-1.3-2.8-3-6.7-7.1-9.8c-11-8.7-30.5-5.6-42.4,3.5c-10.2,7.8-8.2,15.1-21.4,28.3
			c-6.3,6.3-12.6,10.4-16.9,12.9c2.1,0.5,5.3,1.3,8.8,2.8c14.8,6.2,18.5,10.4,28.5,13.7c8,2.7,18,3.4,28.9-1.1
			c9.1-3.8,13.1-6.2,19-15.6C674.5,76.4,675.7,62.8,670.6,51.9z M568,264.2c-1.5-3.5-3.3-6.9-5.5-10.1l-3.1-4.5l1.3,5.3
			c10.6,43.7-8.2,77.8-50.4,91.2c-3.5,0.9-6.9,1.3-10,1.3c-5.1,0-9.4-1.2-12.6-3.7c-0.1,0-0.1-0.1-0.2-0.3c0,0,0,0,0,0
			c0.1-0.3,0.3-0.8,0.5-1.1c3.1-5.4,7.6-10.3,11.9-15c2.9-3.1,5.8-6.4,8.4-9.7c7.7-10.1,15.8-22.5,16.7-38.1
			c0.7-3.6,0.5-6.9-0.8-11.4l-0.7-2.5l-1.2,2.3c-1.4,2.8-2.3,5.9-3.2,8.8c-0.4,1.4-0.8,2.9-1.3,4.3c-3.1,9.8-10,17.9-16.1,25.1
			c-5.2,6-10.6,11.8-17.1,18.6c-6.3,6.3-18,18-7.7,29.4l0,0l0,0c0.5,0.5,1.1,1,1.6,1.4c6,5,13.5,7.6,22.3,7.6
			c11.6,0,25.4-4.7,36.9-12.6c16.7-10.7,29.1-29.1,33.2-49.1C573.8,288.3,572.6,275.5,568,264.2z M537.3,349.6
			c-15.9,10.9-40.9,18.7-57.5,5.6h0c-0.7-0.6-1.4-1.2-2.1-1.8c-9.2-10.1,0.2-20.5,7.7-28c5.8-6.1,11.6-12.3,17.1-18.6
			c6.5-7.7,13.2-15.7,16.3-25.4c1.5-4.3,2.4-8.8,4.5-12.9c0,0,0,0,0,0c1.1,3.8,1.5,7.2,0.7,11c-0.9,14.5-7.9,26.4-16.5,37.6
			c-6.3,8.4-15.1,15.7-20.4,24.8c-0.3,0.5-0.6,1.2-0.7,1.7c0,0.2,0,0.2,0,0.2c0.2,0.2,0.3,0.6,0.7,0.8c3.2,2.4,7,3.5,10.9,3.8
			c4.2,0.3,8.6-0.3,12.5-1.3c38.7-12.3,57.5-41.6,53.4-78.9c-0.5-4.4-1.3-8.9-2.4-13.5c2.2,3.3,4.1,6.8,5.5,10.3
			C579.5,295,564.4,332.2,537.3,349.6z M390.5,243.6c0.8,0.2,1.6,0.4,2.4,0.8C392.1,244,391.3,243.8,390.5,243.6z M396.3,261.1
			c-3.8-2-8.6,0.3-10,3.4c-2.1,4.7,3.3,11.6,8,11.2c2.7-0.3,4.8-3,5.5-5.5C400.6,267.1,399.7,262.9,396.3,261.1z M417.7,286.3
			c-1.2-4.5-5.8-9-10.4-8.1c-3.4,0.6-5.2,3.8-5.5,4.4c-2,3.8-1.3,9.2,2.5,12.1c3.6,2.8,9.3,2.8,12.1-0.4
			C419,291.2,417.9,286.9,417.7,286.3z"/>
		<path class="st0" d="M608.5,173.5c-0.1,0.3-0.2,0.6-0.3,0.8c0.1-0.3,0.2-0.6,0.3-1C608.5,173.4,608.5,173.5,608.5,173.5z"/>
		<path class="st3" d="M399.7,270.2c-0.7,2.5-2.8,5.2-5.5,5.5c-4.6,0.5-10-6.5-8-11.2c1.4-3.1,6.2-5.4,10-3.4
			C399.7,262.9,400.6,267.1,399.7,270.2z"/>
		<path class="st3" d="M416.4,294.2c-2.8,3.2-8.5,3.2-12.1,0.4c-3.8-3-4.5-8.4-2.5-12.1c0.3-0.6,2.1-3.7,5.5-4.4
			c4.6-0.8,9.2,3.6,10.4,8.1C417.9,286.9,419,291.2,416.4,294.2z"/>
		<path class="st3" d="M466.9,296.9c-0.5,5.2-9.5,8.2-16.4,9.3c-1,0.2-2,0.3-2.9,0.3c-4.2,0.3-11.8,1-16.6-4.2
			c-0.4-0.4-4.5-5-3.2-9.5c1.5-5.1,9-6.5,13.6-7.4c1.9-0.4,5.3-1,9.1-0.8c3.6,0.2,7.6,1.2,11.1,4C463.3,290,467.3,293.2,466.9,296.9
			z"/>
		<path class="st3" d="M504,246.3c0.3,5.8-4.6,11.8-8,15.9c-3.7,4.4-11.9,14.5-20.8,12.3c-3.6-0.9-6.9-3.7-8.3-7.2
			c-2.8-7.1,3.3-14.7,6.6-18.9c0.4-0.5,1-1.2,1.7-2.1c3.8-4.4,11.4-12,19.6-10c3.4,0.8,7.1,3.3,8.5,7
			C503.8,244.3,504,245.3,504,246.3z"/>
		<path class="st3" d="M552.6,235.9c-1.5,4.8-4.7,8.1-8,10.4c-4.6,3.2-9.4,4.4-10.2,4.6c-1.6,0.4-13.3,3-19.7-3.8
			c-0.1-0.1-0.3-0.4-0.7-0.8c-1.3-1.6-3.7-5.3-2.9-9.4c0.3-1.5,1-3.3,4-6.2c6.5-6.4,14.3-8.7,16.7-9.3c7.4-1.9,15.1-3.9,19.3,0.4
			C555.5,226.3,553,234.7,552.6,235.9z"/>
		<path class="st3" d="M580.9,212.3c-1.5,5.7-6.9,7.3-7.5,7.5c-0.7,0.2-5.4,1.5-8.1-1.9c-0.2-0.3-1.9-2.5-1.5-5.1
			c0.1-0.7,0.4-1.7,1.6-3.1c2.7-3.2,5.9-4.3,6.8-4.6c3-1,6.2-2,7.9,0.2C582.1,207.5,581.1,211.7,580.9,212.3z"/>
		<path class="st3" d="M591.7,186.7c-0.5,0.5-3.8,4.1-7.9,2.6c-0.3-0.1-2.9-1.2-3.9-3.6c-0.3-0.7-0.5-1.6-0.2-3.5
			c0.6-4.1,2.7-6.8,3.4-7.5c2.1-2.4,4.3-4.9,6.8-4c2.7,1,4,5.1,4.2,5.7C595.9,182,592.1,186.2,591.7,186.7z"/>
		<path class="st3" d="M596.7,158.8c-0.3,0.3-2.3,2.5-4.7,1.5c-0.2-0.1-1.7-0.7-2.3-2.2c-0.2-0.4-0.3-1-0.1-2.1c0.4-2.5,1.6-4,2-4.5
			c1.2-1.4,2.5-2.9,4.1-2.4c1.6,0.6,2.4,3,2.5,3.4C599.2,156.1,597,158.6,596.7,158.8z"/>
		<path d="M584.6,63c-1.9,0.5-10.6,0.6-15.9,8.8c-4.6,7-1.7,17.1-1.5,19.3c-7.4-5.2-8.2-16.7-4.2-22.7
			C567.2,62.1,576.8,59.1,584.6,63z"/>
		<path d="M668.1,86.4c-5.9,9.4-10,11.8-19,15.6c-10.9,4.6-20.8,3.8-28.9,1.1c-10-3.4-13.7-7.5-28.5-13.7c-3.6-1.5-6.7-2.3-8.8-2.8
			c4.3-2.5,10.6-6.6,16.9-12.9C613,60.6,611,53.4,621.2,45.6c11.8-9.1,31.4-12.3,42.4-3.5c4,3.2,5.8,7.1,7.1,9.8
			C675.7,62.8,674.5,76.4,668.1,86.4z"/>
		<path class="st4" d="M609.6,88.9c-0.4-6.5,17.2-11.8,20.7-12.9c7.3-2.2,17.5-5.3,25.5,0.3c3.4,2.4,5.3,5.5,6.3,7.8
			c-2.4,2.8-6.7,6.9-13.1,10.1c-3.2,1.6-10.4,5-19.7,4.3C621.5,97.9,609.9,94.1,609.6,88.9z"/>
		<path class="st5" d="M523.3,268.3C523.3,268.3,523.3,268.3,523.3,268.3C523.3,268.3,523.3,268.3,523.3,268.3L523.3,268.3z"/>
		<path class="st0" d="M635,330c-0.1,5.7-2.2,9.5-6.2,17c-1.4,2.7-6.5,11.7-23.4,29c-3.6,3.7-6.4,6.4-8.6,8.3
			c-1.1,0.9-2,1.7-2.8,2.3c-0.6,0.4-1.1,0.8-1.5,1c-0.3,0.2-0.6,0.4-0.9,0.5c-0.1,0-0.2,0.1-0.3,0.1c-0.1,0-0.2,0.1-0.3,0.1
			c-0.1,0-0.1,0-0.2,0.1c-0.1,0-0.2,0.1-0.3,0.1c-0.1,0-0.1,0-0.2,0c-0.1,0-0.2,0-0.3,0c-0.1,0-0.2,0-0.3,0c0,0,0,0-0.1,0
			c-0.2,0-0.3,0-0.5,0c0,0-0.1,0-0.1,0c-0.1,0-0.2,0-0.3,0c-2.1-0.5-3.6-2.4-4.7-4.8c-0.2-0.5-0.5-1.1-0.7-1.7
			c-0.1-0.3-0.2-0.7-0.3-1.1c-0.1-0.3-0.2-0.5-0.2-0.8c-0.1-0.2-0.1-0.4-0.2-0.6c-0.3-1.1-0.5-2.1-0.7-3.2c0-0.3-0.1-0.5-0.1-0.8
			c-0.1-0.8-0.2-1.6-0.3-2.4c-0.2-1.6-0.2-3.1-0.2-4.3c0-0.6,0-1.2,0-1.8c0,0,0,0,0,0c0,0,0,0,0,0c0.2-3.7,1-7.3,2.2-10.7
			c1.4-1.8,2.8-3.7,4.2-5.6c4.6-6.3,9.2-13.4,13.8-21.5c5.2-9.1,12.1-22.5,18.5-36c2.5,6.3,5,11.5,7.2,15.6c1,1.9,2,3.7,2.9,5.3
			C633,319.7,635.1,324,635,330z"/>
		<path d="M390.5,243.6c0.8,0.2,1.6,0.4,2.4,0.8C392.1,244,391.3,243.8,390.5,243.6z"/>
		<path d="M571.1,301.3c-4.1,20-16.5,38.3-33.2,49.1c-11.5,7.9-25.3,12.6-36.9,12.6c-8.8,0-16.3-2.5-22.3-7.6
			c-0.6-0.4-1.1-0.9-1.6-1.4l0,0l0,0c-10.3-11.4,1.4-23.1,7.7-29.4c6.5-6.8,11.9-12.6,17.1-18.6c6.1-7.2,13-15.4,16.1-25.1
			c0.5-1.4,0.9-2.9,1.3-4.3c0.9-2.9,1.7-6,3.2-8.8l1.2-2.3l0.7,2.5c1.2,4.5,1.5,7.8,0.8,11.4c-0.9,15.6-9,28.1-16.7,38.1
			c-2.5,3.4-5.5,6.6-8.4,9.7c-4.3,4.7-8.8,9.6-11.9,15c-0.2,0.3-0.4,0.8-0.5,1.1c0,0,0,0,0,0c0.1,0.1,0.2,0.2,0.2,0.3
			c3.2,2.5,7.5,3.7,12.6,3.7c3.1,0,6.4-0.4,10-1.3c42.1-13.4,60.9-47.5,50.4-91.2l-1.3-5.3l3.1,4.5c2.2,3.2,4,6.6,5.5,10.1
			C572.6,275.5,573.8,288.3,571.1,301.3z"/>
		<path d="M637.8,249.6c-1.3,5-4.1,12.5-7.8,21.2C631.5,267.1,634.7,258.5,637.8,249.6z"/>
		<path class="st6" d="M644.4,173.7L644.4,173.7c-0.2,1.4-0.4,2.7-0.7,3.9c-0.3,1.9-0.6,3.7-1,5.4c-1,5.4-4.1,21.4-10.3,41.9v0
			c-3.7,12.2-7.7,23.2-11.5,32.8v0c-0.7,1.9-1.5,3.6-2.2,5.4c0,0,0,0.1,0,0.1c0,0.1-0.1,0.2-0.1,0.3c0,0.1-0.1,0.2-0.2,0.4
			c0,0.1-0.1,0.1-0.1,0.2c0,0.1-0.1,0.1-0.1,0.2c-2.3,5.1-11.1,24.9-19.8,42.4c-1.4,2.9-2.9,5.7-4.5,8.5c-14.8,26.5-34.2,47.7-53,60
			c-2,1.3-4,2.5-5.9,3.6c-1.3,0.7-2.6,1.4-3.9,2.1c-2.2,1.1-4.4,2.2-6.6,3.2c-1.8,0.8-3.7,1.6-5.6,2.3c-8.4,3.3-17.1,5.7-25.9,7.2
			c-10.3,1.7-20.5,2-30.3,0.8c-1.2-0.1-2.3-0.2-3.4-0.3c-16.1-1.6-21.7-4.2-21.7-5.5c1.1-0.9,2.3-1.8,3.5-2.8
			c0.1-0.1,0.2-0.2,0.3-0.2c0.2-0.2,0.4-0.3,0.6-0.5c0.6-0.6,1.3-1.2,1.8-1.6c0.2-0.2,0.4-0.4,0.6-0.6l0.3-0.3
			c0.5-0.5,1-1.1,1.5-1.6c0.5-0.5,1-1.1,1.4-1.6c0,0,0.1-0.1,0.1-0.1c0.3-0.3,0.5-0.6,0.7-0.9c0.2-0.3,0.5-0.6,0.7-0.9
			c0.4-0.5,0.8-0.9,1.1-1.4c0.1-0.1,0.1-0.1,0.2-0.2v0c0-0.1,0.1-0.1,0.1-0.2c0,0,0,0,0,0v0c0.3-0.3,0.5-0.7,0.7-1
			c0.3-0.4,0.6-0.8,0.9-1.2c0.2-0.3,0.5-0.7,0.7-1c0,0,0-0.1,0.1-0.1c0.3-0.4,0.5-0.8,0.8-1.2c0.3-0.4,0.5-0.8,0.8-1.2
			c0.4-0.7,0.8-1.4,1.2-2c0.1-0.1,0.1-0.2,0.2-0.4c0.1-0.3,0.3-0.5,0.4-0.8c0-0.1,0.1-0.1,0.1-0.2c0.2-0.4,0.4-0.8,0.7-1.2
			c0-0.1,0.1-0.2,0.1-0.3c0.1-0.3,0.3-0.6,0.4-0.8c0-0.1,0.1-0.2,0.1-0.3l0,0c0.2-0.4,0.4-0.7,0.5-1.1l0,0v0
			c0.1-0.1,0.1-0.3,0.2-0.4c0.1-0.2,0.2-0.4,0.3-0.7c0.1-0.2,0.2-0.4,0.2-0.5c0.1-0.2,0.1-0.4,0.2-0.5c0.2-0.5,0.4-0.9,0.6-1.4
			c0.2-0.5,0.4-0.9,0.5-1.3v0c0.7-0.1,1.4-0.1,2.5-0.1c1.2,0,2.7-0.1,5-0.3c0,0,4.2-0.4,10.8-2.1c6,5,13.5,7.6,22.3,7.6
			c11.6,0,25.4-4.7,36.9-12.6c16.7-10.7,29.1-29.1,33.2-49.1c2.7-13,1.5-25.8-3.1-37.1c4.3-4,6.1-5,10.7-11.5c1.6-2.2,3-4.3,4.2-6.4
			c0,0,0,0,0,0c7-11.9,10.3-24.5,19.2-52.9c0.7-2.1,1.3-4,1.8-5.9c0.1-0.3,0.2-0.6,0.3-0.9c0.5-1.6,1-3.3,1.6-5.2
			c0.1-0.4,0.2-0.8,0.4-1.2c0.4-1.2,0.8-2.4,1.2-3.8c0.1-0.3,0.2-0.6,0.3-1c0.1-0.3,0.2-0.7,0.3-1c0,0,0-0.1,0-0.1
			c0.1-0.3,0.2-0.6,0.3-1c0-0.2,0.1-0.3,0.2-0.5c2.2-6.5,5.1-12.7,8.8-18.5c0.8-1.2,1.6-2.4,2.4-3.6
			C640,122.8,645.4,153.4,644.4,173.7z"/>
		<path class="st6" d="M608.5,173.4c-0.1,0.3-0.2,0.6-0.3,1c0.1-0.3,0.2-0.5,0.3-0.8C608.5,173.5,608.5,173.4,608.5,173.4z"/>
		<path class="st6" d="M450.6,375.7C450.6,375.7,450.6,375.7,450.6,375.7L450.6,375.7C450.6,375.7,450.6,375.7,450.6,375.7z"/>
		<path class="st6" d="M457.8,363.9c0,0.1-0.1,0.2-0.1,0.3c-0.1,0.3-0.3,0.6-0.4,0.8c0.1-0.3,0.3-0.5,0.4-0.8c0,0,0,0,0,0
			C457.7,364.1,457.8,364,457.8,363.9z"/>
		<path class="st6" d="M458.3,362.8c-0.2,0.4-0.3,0.7-0.5,1.1l0,0c0,0,0,0,0,0C458,363.6,458.1,363.2,458.3,362.8z"/>
		<polygon class="st6" points="458.3,362.8 458.3,362.8 458.3,362.8 		"/>
		<path class="st6" d="M441.4,385.5c-0.1,0.1-0.2,0.2-0.3,0.2c0,0,0,0,0,0C441.2,385.7,441.3,385.6,441.4,385.5z"/>
	</g>
</g>
<g id="black_outlines">
	<polygon points="377.8,395.2 379.1,416.8 358.2,414.7 358.2,395.2 	"/>
	<path d="M997.1,432.7c2.4-7.9,5.1-16.2,0.2-23.9c-24.7-30-76.9-23.2-100.7,4.7c-15.2-15.5-39.9-16.4-58.4-6.5
		c-15-7.2-47.7-10.4-62.8-1.4c-20.9-14.1-53.5-20.7-77.2-11c-14.7-4-30.8,0.1-46.1,0.6c-12.4,1.4-15.2,5.3-15.2,5.3
		c-8.1-3.2-44.6-4-49,1.6c-17.8-15.7-57.1-19.8-80.3-2.6c-1.6-1.3-3.3-2.4-5-3.4c-19.3-16.5-52.1-14.4-72-3.8
		c-30.5-23.1-49.3-8.3-57.8,2.7c-3.7,4.8-5.5,8.8-5.5,8.8c-1.3-2.3-3.8-5.4-6.8-8.8c-10-10.9-27.1-24.2-37.1-19.2
		c-9,3.8-13.7,11.7-19,18.9c-21.9-12.3-59.2-9.6-76.7,4.8c-13.2,10-19.9,30-20.6,49.7h-9.7c-0.6-24.7,13.2-56.5-25.3-53.5
		c-15.3,0.2-30.1-2.1-44.5,4.5c-27.8-23.1-100-23.7-124.6,1.4c-8.6,12.8,5.1,45.4,6.3,59.3c0.8,5.9,4.5,13,9.9,16.2
		c1.3,10.2,2.7,20.9,3.7,30.4c0.5,10.8,2.6,22.5,13.5,27.3c18.6,6.8,40.8,5.7,58.7-3.7c9.4-6.2,3.7-23.5,5.7-33l13.2-4.3
		c1.2,2.5-1.5,23,5,29c24.6,15,75,13.1,103.1,8.6c16.2,9.6,36.4,8.1,51.6-2.8c16.2,10.8,38.8,5.8,54.4-4.1
		c12.6,14.5,70.2,10.9,75-2.9c17.8,12.7,55.7,24,89.6,2.3c-1.8,1,24.5,24,57.3,4.7c5.1,3.9,13.6,7.5,29.2,7.6
		c3.8,0.2,15.7-4.2,22.8-8.4c16.4,12.8,36,15.7,55.3,6.1c12.2,5.6,29.3,5.2,40.8-1.6c9.6,3.9,21.3,1,31,1.7
		c5.7,0.3,11.4-0.3,16.1-3.2c10.5,6.5,21.3,4.4,32.7,2.4c4.9-0.2,10.2-0.5,14.7-2.6c17.3,8.8,38.5,7.7,55.8,0
		c13.1,8.9,30.5,5.6,44.3-0.4c49.1,32.8,137.9-10.5,91.5-71.7C989.6,450.6,994.3,442,997.1,432.7z"/>
</g>
<g id="green">
	<g>
		<path class="st0" d="M693.8,411.6c-1-4.5-6.3-3.2-10-2.9c-11.9,0.7-22.6,1.3-34.7,2.4c2.8,13.1,5,25.4,8.5,38.1
			c0.1,0.4,0.2,0.8,0.2,1.2c0.6,3.5,0.2,7.1-0.9,10.1c-0.5,1.3-1.1,2.7-1.9,3.9c-0.3,0.6-0.7,1.1-1.1,1.6c-0.4,0.5-0.8,1-1.2,1.6
			c0,0,0,0,0,0c-1.4,1.6-2.9,4-5.1,4.4c-0.6,0.1-1.2,0.1-1.8-0.1c-8.6-4.3-13.8-13.7-11.9-23.5c0-0.1,0-0.3,0.1-0.4
			c0.3-2.1,0.6-4.2,1-6.4c0.1-0.8,0.3-1.7,0.4-2.5c0.1-0.4,0.1-0.9,0.2-1.3c0.2-1.1,0.4-2.1,0.6-3.2c0.2-1,0.4-1.9,0.6-2.9
			c0.2-0.8,0.3-1.5,0.5-2.3c0.4-1.7,0.7-3.4,1.1-5.1c0.1-0.1,0.1-0.3,0.1-0.4c0,0,0,0,0,0c0.8-2.9,0.1-4.9-1.3-6c0,0,0,0,0-0.1
			c-1.6-1.3-4.1-1.7-6.9-1.6c-11,0.2-22.7-2.7-33.4-0.6c2.2,6,4.8,13.5,6.8,20c0,0.1,0,0.1,0.1,0.2s0,0.1,0.1,0.2
			c0.4,1.5,0.9,3,1.3,4.4c6.7,28.2,7.3,47.2,4.1,71.7c13.1,16.6,31.8,15,49.2,4.1c6.7,7.1,16.4,7.1,25.4,5.6
			c9.4-0.6,8.3-9.8,10.1-16.5c2.4-11.5,2.8-22.4,3.5-32.2c1.1-16.2,1.2-20.8,0.3-30.9C696.9,431.7,695.8,422.8,693.8,411.6z"/>
		<path class="st0" d="M983.9,416.8c-2.4-5.2-10.2-7-15-9.3c-12.4-4.2-26.2-3.9-38.5,0.7c-8.2,3.1-15.8,8.2-21.6,14.8c0,0,0,0,0,0
			c-2,2.3-3.8,4.8-5.2,7.6c0.4,4.4,0.9,9.2,1.3,14l0,0c0.4,4.8,0.8,10.1,1.2,15c0.1,1.7,0.2,3.4,0.4,5c0.9,1.2,2,2.4,3.1,3.5h0
			c7.7,7.2,15.9,9.8,25.9,15.3c0,0-0.1,0-0.1,0.1c0,0,0.1,0.1,0.2,0.1c-0.2,0.1-0.3,0.3-0.5,0.4c-0.2,0.2-0.5,0.3-0.7,0.5
			c-0.3,0.2-0.6,0.4-0.9,0.6c0,0,0,0,0,0c-9.5,6.3-19.8,0.3-26-4.9c0.4,12.8,0.3,25.9-4,38.8c0.4,0.2,0.9,0.5,1.3,0.7
			c13.1,6.9,25.6,8.7,36.6,7.4c9.5-1.1,17.9-4.6,24.6-9.2c0.5-0.3,1-0.6,1.4-0.9c0,0,0,0,0.1,0c6.5-4.5,11-10,13.1-16.2
			c1-3,1.5-6.2,1.4-9.5c0-0.4,0-0.7-0.1-1.1c-0.4-5.2-2.3-10.8-5.9-16.5c-0.1-0.1-0.1-0.2-0.2-0.3c-3.2-4.3-7.1-7.5-11-10.2
			c0,0-0.1,0-0.1-0.1c-8.9-6.2-17.1-9.4-13.2-15.6c4.2-4.9,12.1-1.8,15.3,6.9c0.2,0.6,1,0.8,1.4,0.2c6-7.1,10.7-15.3,13.7-24.1
			c0.9-2.6,1.6-5.2,2.2-7.9h0c0.1-0.3,0.1-0.7,0.2-1c0-0.1,0-0.1,0-0.2c0,0,0,0,0,0c0,0,0,0,0,0c0,0,0-0.1,0-0.1c0,0,0,0,0,0
			c0,0,0-0.1,0-0.1c0-0.1,0-0.2,0-0.3C984.6,419.2,984.5,418,983.9,416.8z"/>
		<path class="st0" d="M879.3,419.4c-13.3-5.9-28.7-4.7-39,5.3c-1.2,1.3-1,5.8,0.2,14.2c1.3,8.4,2.2,14.4,5.2,25
			c-5.1,3.8-12.5,8.4-18.3,12.2h0c-1.8-9.7-2.3-19.9-1.6-29.7c0.6-6.6,1.9-13.2,4-19.5c2.4-6.1,0.9-7.3-4-8.5
			c-8.2-2.1-36.9-6.1-41.9,1c5.2,10.1,11.3,21.9,6.8,36.2c-1.7,4.8-3.9,11.3-7.5,14c0,0,0,0,0,0c12.2,11.9,18.4,30.5,19.1,48.7
			c11.1,4.3,24,4,35.2,0.2v0c1.7-0.6,3.4-1.3,5-2.1c1.1-0.5,2.2-1.1,3.3-1.7v0c1.2-0.7,4.6-2.7,5-2.9c9.6,13.2,26.9,9.6,39.4,2.5
			c0.5-3.1,0.9-6.2,1.3-9.4c2-17.8,2.1-39.5-1.2-58.2C887.7,437.7,888.7,424.5,879.3,419.4z"/>
		<path class="st0" d="M297.6,408.8c-9.7-5.5-20.9-7.4-32-6.3c-32.2,1.4-43.2,21.4-43.7,51.4c2.7,1,5.4,2.6,7.2,4.9
			c10.6,19.3,11.3,41.9,5.4,61.7c9.3,3.5,19.8,2.4,28.1-3c6.7-7,0.8-16.5-0.1-25.9c6.7,6.6,13.5,5.6,19.9,0.6
			c0.7,22.6-5.7,30.5,22.5,26c5.8-1.8,15.4-3.7,15.3-11.6c0.6-6.3,0.9-12.6,0.9-19c0-15.6-2.1-31.2-6.4-46.2
			C310.7,430,308.7,415.7,297.6,408.8z M265.1,462.1c-7.2,0.8-6.4-12.2-8.9-17.5c-5.3-13.1,9.4-20.5,19.7-18.6c8.9,1.9,8,13,6.8,20
			C280.6,461.2,280.6,462,265.1,462.1z"/>
		<path class="st0" d="M417.6,431.1c0.7-0.9,1.3-1.8,1.9-2.7c0.1-0.2,0.3-0.4,0.4-0.7c0.2-0.3,0.4-0.6,0.6-0.9
			c0.2-0.3,0.3-0.5,0.5-0.8c0.1-0.2,0.3-0.5,0.4-0.7c0.1-0.1,0.1-0.2,0.1-0.2c1.3-2.8,2.2-5.8,2.6-8.8v0c0.2-2.1,0.2-4.3-0.1-6.5
			c0,0,0,0,0-0.1c-1-4.7-4-8.6-7.9-11.4c-0.3-0.2-0.5-0.4-0.8-0.5c-0.3-0.2-0.6-0.4-0.9-0.6c-0.3-0.2-0.5-0.3-0.8-0.4
			c-0.6-0.3-1.2-0.6-1.8-0.9c-0.2-0.1-0.4-0.2-0.6-0.2c0,0-0.1,0-0.1,0c-0.1-0.1-0.3-0.1-0.4-0.2c0,0,0,0,0,0
			c-0.2-0.1-0.4-0.2-0.7-0.3c-0.3-0.1-0.6-0.2-0.9-0.3c-4.2-1.4-8.7-1.7-12.9-0.9c-0.3,0.1-0.5,0.1-0.8,0.2c-0.1,0-0.1,0-0.2,0
			c-0.2,0.1-0.4,0.1-0.6,0.2c-0.5,0.1-1,0.3-1.5,0.6c-0.2,0.1-0.4,0.2-0.6,0.3c-0.2,0.1-0.4,0.2-0.6,0.3c-0.2,0.1-0.4,0.2-0.6,0.3
			c-0.4,0.2-0.7,0.4-1.1,0.7c0,0-0.1,0-0.1,0c-0.3,0.2-0.7,0.5-1,0.7c-0.3,0.3-0.7,0.5-1,0.8c-0.3,0.3-0.6,0.6-1,0.9
			c-0.2,0.2-0.4,0.4-0.6,0.6c-0.3,0.3-0.6,0.7-0.9,1c-0.3,0.3-0.6,0.7-0.8,1c-0.8,1.2-1.7,2.5-2.5,3.7c0,0,0,0,0,0
			c-1.2,1.9-2.5,3.7-3.7,5.6c-0.3,0.4-0.6,0.9-0.8,1.3c-0.5,0.8-1,1.5-1.5,2.3c-0.4,0.7-0.9,1.4-1.3,2.1c-1.6,2.5-3.2,5.1-4.7,7.6
			c-1.6,2.5-3.1,5.1-4.8,7.6c0,0,0,0,0,0v0c-2.8-6.1-6.1-12.1-9.9-17.8c-0.1-0.2-0.3-0.5-0.5-0.7c-0.4-0.6-0.8-1.1-1.2-1.7
			c0,0-0.1-0.1-0.1-0.2c-0.2-0.4-0.5-0.7-0.8-1.1c-3.8-5.1-8-9.8-12.9-14.1c-0.2-0.2-0.5-0.5-0.7-0.7l0,0c-2.1-1.8-4.2-3.4-6.5-4.9
			c-1.3-0.6-2.5-0.9-3.8-0.7c0,0,0,0-0.1,0c0,0,0,0,0,0c-1.4,0.4-2.8,1.3-4.1,2.5l0,0c-0.3,0.3-0.5,0.6-0.8,1h0
			c-1.4,1.4-2.6,2.9-3.8,4.5c0,0,0,0.1-0.1,0.1c0,0,0,0.1-0.1,0.1c-2.2,3.5-4,7.1-4.6,9.3c2.5,4.7,4.9,9.3,6.9,14
			c0,0.1,0.1,0.2,0.1,0.3c1.9,4.2,3.6,8.2,4.6,11.4c0.4,1.6,0.8,3.2,1.2,4.8c0,0,0,0,0,0.1c1.1,4.5,2,9.1,2.8,13.3c0,0,0,0,0,0.1
			c0.3,0.4,0.7,0.8,1,1.1c0.3,0.4,0.7,0.8,1,1.1c0,0,0,0,0,0c0.2,0.3,0.4,0.5,0.6,0.8c0.2,0.2,0.4,0.5,0.7,0.7
			c0.4,0.4,0.7,0.7,1.1,1.1c0.2,0.2,0.5,0.5,0.7,0.7c0.5,0.5,0.9,0.9,1.4,1.4c0.5,0.5,0.9,0.9,1.3,1.4c0.3,0.3,0.5,0.6,0.8,1
			c0,0,0,0,0,0c0.4,0.6,0.8,1.2,1.1,1.8c0.1,0.2,0.2,0.4,0.3,0.6c0,0,0,0.1,0.1,0.1c0.2,0.4,0.3,0.8,0.4,1.2c0,0,0,0.1,0,0.1
			c0.1,0.4,0.2,0.9,0.2,1.4c0.1,0.8,0,1.6-0.1,2.5c-1,14.5-4.3,29.8-3.2,44.2c0.6,0.5,1.3,1,2.1,1.5c1.4,0.8,3,1.5,4.7,2.1
			c1,0.3,2.1,0.6,3.2,0.9c0.6,0.1,1.1,0.2,1.7,0.4c12.7,2.5,30.2,1.1,38.2-2.5c0.1-0.1,0.2-0.2,0.3-0.3c0.1-0.1,0.2-0.2,0.2-0.3
			c0,0,0,0,0-0.1c0.1-0.1,0.1-0.2,0.2-0.2c0.1-0.1,0.1-0.2,0.2-0.4c0.1-0.2,0.1-0.3,0.2-0.5c0-0.1,0-0.1,0.1-0.2
			c0.1-0.2,0.1-0.5,0.1-0.8c0-0.2,0-0.4,0.1-0.6c0-0.3,0-0.7,0-1c0-0.2,0-0.3,0-0.5c-0.1-1.2-0.1-2.5-0.2-3.7
			c-0.1-0.9-0.1-1.9-0.1-2.8c-0.1-1.3-0.1-2.6-0.2-4c0,0,0,0,0,0c0-0.8-0.1-1.7-0.1-2.5c-0.1-2.5-0.3-4.9-0.5-7.4
			c-0.1-0.7-0.1-1.3-0.2-2c0-0.5-0.1-1.1-0.2-1.6c-0.1-0.7-0.2-1.4-0.3-2.1c-0.2-1.2-0.3-2.5-0.6-3.7c-0.9-5.6-0.1-10.4,1.7-14.9
			c0,0,0,0,0-0.1c2.7-6.8,7.9-12.5,13.4-18.1c0.1-0.1,0.2-0.2,0.3-0.3C408.3,442.1,413.6,436.9,417.6,431.1L417.6,431.1z"/>
		<path class="st0" d="M499.5,415.3c0-0.1,0.1-0.2,0.1-0.3c0.1-0.5,0.2-0.9,0.3-1.4c0,0,0-0.1,0-0.1c0-0.2,0.1-0.3,0.1-0.5
			c0,0,0,0,0,0c0-0.1,0-0.2,0-0.3c0-0.8-0.1-1.5-0.3-2.2c0,0,0,0,0,0c-0.4-1.1-1.1-2.1-2-2.9c-0.1-0.1-0.2-0.1-0.2-0.2c0,0,0,0,0,0
			c-0.2-0.2-0.4-0.3-0.6-0.5c0,0,0,0-0.1,0c-1-0.7-2-1.3-3.1-1.9c-0.5-0.3-1-0.6-1.5-0.8c-0.3-0.1-0.5-0.3-0.8-0.4
			c-0.1-0.1-0.2-0.1-0.3-0.1c-0.2-0.1-0.4-0.2-0.6-0.3c0,0,0,0,0,0c0,0-0.1,0-0.1-0.1c0,0-0.1-0.1-0.1-0.1c0,0-0.1,0-0.1,0
			c-0.4-0.2-0.7-0.3-1.1-0.5c0,0,0,0,0.1,0c-0.2-0.1-0.5-0.2-0.7-0.3c-0.2-0.1-0.5-0.2-0.7-0.3c-0.6-0.3-1.2-0.5-1.9-0.7
			c-0.5-0.2-1-0.4-1.4-0.5c-0.5-0.2-1-0.3-1.5-0.5c-1-0.3-1.9-0.6-2.9-0.8c-0.1,0-0.2-0.1-0.3-0.1c-0.4-0.1-0.8-0.2-1.2-0.3
			c-0.8-0.2-1.5-0.3-2.3-0.5c-0.8-0.1-1.5-0.3-2.3-0.4c-1.5-0.2-3.1-0.4-4.6-0.4c-0.5,0-1-0.1-1.6-0.1c-4.8-0.1-9.5,0.3-14.2,1.4
			c-0.2,0-0.4,0.1-0.6,0.1c-1.5,0.3-3,0.8-4.4,1.2c-0.9,0.3-1.8,0.6-2.8,1c-2.9,1.1-5.8,2.5-8.5,4.1c1.4,4.8,1.5,9.9,0.7,15
			c0,0,0,0,0,0c-0.8,4.9-2.5,9.6-5,13.7c0,0,0,0.1,0,0.1c-0.1,0.1-0.2,0.3-0.2,0.4c-0.5,1-1.1,2-1.7,3c-1.1,1.8-2.2,3.6-3.3,5.4
			c-1,1.6-2.1,3.3-3.2,4.9c0,0,0,0,0,0.1c-0.4,0.6-0.7,1.1-1.1,1.6s-0.7,1.1-1.1,1.6c-1,1.6-2.1,3.1-3.1,4.6
			c0.1,0.1,7.1,10.7,31.6,20.7c-13.4,11.6-29.1-3.8-33-8.1c-3.1,3.5-5.3,9.2-6.3,15.4c-2.1,11.8-0.1,25.2,7.1,27.9
			c0.4,0.2,0.9,0.5,1.3,0.7c0.7,0.4,1.3,0.7,2,1c0.4,0.2,0.9,0.4,1.3,0.6c11.5,5.3,22.5,6.5,32.4,5.9c0.2,0,0.4,0,0.6,0
			c0,0,0.1,0,0.1,0h0c0,0,0.1,0,0.1,0c1.1-0.1,2.4-0.3,3.7-0.6c0,0,0,0,0.1,0c6.4-1.3,14.4-4.5,19.8-7.9c0.3-0.2,0.6-0.4,1-0.6
			c0.1,0,0.1-0.1,0.2-0.1c0.2-0.1,0.4-0.3,0.6-0.4c0.2-0.1,0.4-0.3,0.6-0.4c0,0,0,0,0,0c0.1,0,0.1-0.1,0.2-0.1c0,0,0,0,0.1,0
			c0.3-0.2,0.5-0.4,0.8-0.6c0.1-0.1,0.3-0.2,0.4-0.3c0.1-0.1,0.2-0.2,0.4-0.3c0.7-0.5,1.4-1.1,2-1.6c0.3-0.3,0.6-0.5,0.9-0.8
			c0,0,0.1-0.1,0.1-0.1c0.3-0.2,0.5-0.5,0.8-0.8c0.6-0.6,1.1-1.1,1.7-1.7h0v0c0,0,0.1,0,0.1-0.1c0,0,0,0,0,0c0,0,0.1-0.1,0.1-0.1
			c0,0,0-0.1,0.1-0.1c0.1-0.1,0.1-0.2,0.2-0.2c0.1-0.1,0.2-0.2,0.2-0.3c0,0,0-0.1,0.1-0.1c0.2-0.3,0.5-0.6,0.7-0.9
			c0.3-0.4,0.5-0.7,0.8-1.1c0.2-0.2,0.3-0.5,0.5-0.7c0.2-0.2,0.3-0.5,0.5-0.7c0.3-0.5,0.6-1,0.9-1.5c0.3-0.6,0.7-1.3,1-1.9
			c0,0,0-0.1,0-0.1c0.3-0.7,0.6-1.4,0.8-2.1c0.1-0.3,0.2-0.7,0.3-1c0.2-0.7,0.4-1.4,0.5-2.1c0.1-0.3,0.1-0.6,0.2-0.9
			c0-0.1,0-0.2,0.1-0.3c0.1-0.3,0.1-0.6,0.1-0.9c0-0.3,0.1-0.7,0.1-1V487c0-0.2,0-0.5,0-0.7c0-0.2,0-0.3,0-0.5c0-0.7,0-1.3,0-2
			c0-0.4,0-0.7-0.1-1.1c0-0.3-0.1-0.7-0.1-1c0-0.3-0.1-0.6-0.1-0.9c0-0.2-0.1-0.4-0.1-0.6c-0.1-0.3-0.1-0.6-0.2-0.9
			c-0.1-0.4-0.2-0.8-0.2-1.2c-0.1-0.4-0.2-0.8-0.3-1.2c-0.1-0.4-0.2-0.8-0.4-1.2c-0.1-0.4-0.2-0.8-0.4-1.2c-0.1-0.3-0.2-0.7-0.4-1
			c-0.1-0.4-0.3-0.7-0.4-1c-0.1-0.2-0.1-0.3-0.2-0.5c-0.1-0.3-0.3-0.7-0.4-1c-0.2-0.4-0.4-0.8-0.6-1.2c-0.2-0.4-0.4-0.8-0.6-1.2
			c-0.2-0.4-0.4-0.8-0.7-1.2c-0.2-0.4-0.5-0.8-0.7-1.2c-0.1-0.1-0.1-0.2-0.2-0.3c0,0,0,0,0-0.1c-3.2-4.3-7.1-7.5-11-10.2
			c0,0-0.1,0-0.1-0.1c-0.6-0.4-1.1-0.7-1.7-1c0,0,0,0,0,0c-0.1,0-0.1-0.1-0.1-0.1c-0.4-0.2-0.8-0.5-1.2-0.7c-0.8-0.5-1.6-1-2.3-1.4
			c-0.4-0.2-0.7-0.5-1.1-0.7c0,0,0,0,0,0c-0.4-0.2-0.7-0.5-1.1-0.7c-0.4-0.3-0.8-0.6-1.2-0.9c-0.5-0.4-1-0.7-1.4-1
			c-0.4-0.3-0.8-0.6-1.1-0.9c0,0-0.1-0.1-0.1-0.1c-0.2-0.2-0.3-0.3-0.5-0.5c-1.6-1.5-2.5-3-2.4-4.6c0-0.1,0.1-0.2,0.1-0.3
			c0.2-0.8,0.5-1.5,0.9-2.1c0,0,0,0,0,0c0.1-0.2,0.3-0.5,0.5-0.7c0,0,0,0,0-0.1c1-1.2,2.4-1.8,3.9-1.9c0.2,0,0.3,0,0.5,0
			c1.9,0,4.1,0.8,6,2.4c0,0,0,0,0,0c1.9,1.6,3.6,3.9,4.5,6.8c0.1,0.4,0.5,0.6,0.9,0.5c0,0,0,0,0,0h0c0.8-0.8,1.6-1.7,2.3-2.5
			c0-0.1,0.1-0.1,0.1-0.1c0.1-0.2,0.3-0.3,0.4-0.4c0,0,0,0,0,0c0.1-0.1,0.1-0.1,0.2-0.2c0,0,0.1-0.1,0.1-0.1c0,0,0,0,0,0
			c1.2-1.5,2.4-3.1,3.4-4.8c1.3-2,2.5-4.1,3.5-6.3c0.1-0.1,0.1-0.3,0.2-0.4c0.2-0.4,0.4-0.8,0.6-1.2c1.2-2.6,2.3-5.3,3.3-7.9
			c0-0.1,0-0.1,0-0.2c0,0,0-0.1,0-0.1C498.1,420.6,498.8,417.9,499.5,415.3L499.5,415.3z M488.8,439.5L488.8,439.5L488.8,439.5
			c0.1-0.1,0.1-0.2,0.1-0.2C488.9,439.3,488.8,439.4,488.8,439.5z"/>
		<path class="st0" d="M777,455.5c0.4-0.9,0.6-1.7,0.9-2.6c2.4-8.8,0.3-18.2-4.3-25.9c0,0,0,0,0,0c-0.7-1.1-1.4-2.2-2.2-3.3
			c-0.3-0.4-0.6-0.7-0.8-1.1c-0.4-0.5-0.8-1-1.3-1.5c-0.7-0.8-1.5-1.6-2.3-2.3c-0.8-0.7-1.6-1.4-2.4-2c-1.1-0.8-2.3-1.6-3.6-2.3
			c-16.8-7.8-37.9-12.9-55.6-6.1c1.2,10.9,2.7,21.1,4.3,31.7c1.1,8.8,1.8,18.5,1,31.6c-0.5,12.2,0.4,31.3-5.6,46.7
			c9.9,1.1,21,0.3,31-0.2c3.9-3.4,0.9-11.6,1.8-16.5c7.4,6.6,11.8,17.4,22.6,18.2c0,0,0,0,0,0c7.4,0.1,14.6-2.7,22.1-2.4
			c16.5-2.2-11.9-40.8-15.5-48.8C770.9,464.9,775.1,461,777,455.5z M726.3,439.9c8.5-10.6,26.4-5,25.3,9.2
			C748.7,473.1,712.6,459.3,726.3,439.9z"/>
		<path class="st0" d="M181.7,466.9c2.2-9.8,1.8-19.2,2.8-29.1c0.4-6.7,0.9-13.4,1.3-20.1c0.4-10.6-14.4-5.4-21.2-6.8
			c-9.1,0.2-19.3-0.9-27.9,2c5.4,10,7.1,17.8,8,36.9c0.3,14.7-5.3,30.4-18.7,37.3c1.5,7.6-0.9,17.6,3,24.2c0,0,0,0,0,0
			c22.2,8.4,47.9,8.3,71.5,7.2c9.1-1.4,22.9,1.1,23.4-11.7c1.2-8.2,0.5-34.1-3.5-37.3C215.1,461.2,191.8,468.6,181.7,466.9z"/>
		<path class="st0" d="M129.8,437.1c-5.8-48.2-79.3-43.3-112.7-28.7c-5,4.6-0.1,12.4,0.2,18c2.1,9.9,4.2,19.8,6.3,29.7
			c0.7,5.8,2.8,10.6,8.7,6.6c2.4,14.6,3.8,28.6,5.6,43.2c0.9,4.9-0.2,13.1,5,15.2c12.4,4.1,25.9,3.3,38.1-0.5
			c3.7-1.1,6.4-4.5,6.5-8.4c0.2-5.3-1.8-11.1-1.8-16.1c-1.9-7.6,5.6-7.6,11.2-8.9C113.3,483.6,136.8,470.4,129.8,437.1z M91.4,452.1
			c-1.4,1.2-2.8,2.3-4.3,3.3c-17.9,9.8-18.6-0.6-22.7-15.4C71.9,433,100,441.1,91.4,452.1z"/>
		<path class="st0" d="M596.9,480.9c-0.4-10.6-1.7-21.1-4.1-31.4c0-0.1,0-0.1,0-0.2c-0.6-2.8-1.3-5.6-2.1-8.3
			c-2-5.4-3.5-11.6-5.7-17.2c-3-6.6-6.6-11.9-10.8-14.8c-0.3-0.2-0.5-0.4-0.8-0.5c-16.4-10-44.7-7.8-58.9,1.6
			c5.2,15.2-12,41.2-14.9,45.5c-0.2,0.3-0.4,0.5-0.4,0.6c0,0,0,0,0,0c0,0.1,0.1,0.1,0.4,0.4c0,0,0.1,0.1,0.1,0.1
			c12.2,11.8,16.7,36.6,8.4,51.2c-0.9,1.7-1.9,3.3-3.1,4.9c0.4,1.4,0.9,2.7,1.4,3.8c3.9,5.5,11.5,6.7,19.1,5.4c0.1,0,0.3,0,0.4-0.1
			c0.5-0.1,0.9-0.2,1.4-0.3c2.9-0.7,5.6-1.7,8.1-2.8c0.4-0.2,0.7-0.4,1-0.5c0.2-0.1,0.4-0.2,0.7-0.4c0.1,0,0.1-0.1,0.2-0.1
			c0,0,0.1,0,0.1-0.1c0.2-0.1,0.3-0.2,0.5-0.3c0.7-0.5,1.3-1,1.7-1.6c0.1-0.1,0.1-0.2,0.2-0.3c0.1-0.1,0.2-0.3,0.3-0.4
			c0.1-0.2,0.2-0.4,0.3-0.6c0,0,0,0,0,0c0.1-0.2,0.2-0.4,0.3-0.6c0,0,0,0,0,0c0.2-0.4,0.3-0.8,0.4-1.2c0-0.1,0.1-0.3,0.1-0.4
			c0-0.1,0-0.2,0.1-0.3c0-0.2,0.1-0.4,0.1-0.5c0-0.2,0-0.4,0.1-0.6c0-0.2,0-0.4,0-0.6c0-0.6,0-1.3,0-1.9c0-0.4-0.1-0.9-0.1-1.3
			c0-0.3-0.1-0.6-0.1-0.9c-0.1-0.7-0.2-1.4-0.4-2.1c0-0.2-0.1-0.5-0.1-0.7c0-0.2-0.1-0.5-0.1-0.7c-0.1-0.4-0.2-0.8-0.2-1.2
			c0-0.1,0-0.2-0.1-0.3c-0.1-0.4-0.2-0.8-0.2-1.2c-0.1-0.4-0.1-0.9-0.2-1.3c0,0,0,0,0,0c-0.5-2.3-1-4.8-1.5-7.4
			c5.7,6.1,13.6,5.9,19.9,0.6c0.7,22.6-5.7,30.5,22.5,26c2.8-0.8,6.5-1.7,9.6-3.3c3.4-1.9,5-4.4,5.7-7.4c0,0,0,0,0,0
			c0-0.3,0-0.6,0-0.9c0.3-3,0.5-5.9,0.7-8.9v-0.1c0-2.7,0-5.8,0.3-9.1c0-0.3,0-0.6,0-0.9c0-1.9,0-3.8-0.1-5.7
			C596.9,481.2,596.9,481.1,596.9,480.9z M558.5,445.9l0,0.2c-0.7,4.8-1.2,8.1-2,10.4c0,0,0,0,0,0c-1,2.5-2.4,3.8-5.1,4.4
			c0,0,0,0,0,0c-2.1,0.5-5,0.6-9.1,0.7h0c-0.4,0-0.9,0-1.3,0c-0.1,0-0.2,0-0.3,0h-0.1c-0.5,0-0.9,0-1.4-0.1c0,0,0,0,0,0
			c-1.3-0.3-2.3-1.3-3-2.6c-1.1-2-1.7-4.8-2.3-7.5c0,0,0-0.1,0-0.1c-0.5-2.8-1-5.4-1.9-7.2c0,0-0.1,0.1-0.1,0.1
			c-0.1-0.4-0.2-0.8-0.2-1.2c0,0,0,0,0,0c-1-3-0.9-5.7-0.1-8c0,0,0,0,0,0c0.5-1.8,1.4-3.5,3.1-4.8c1-0.8,2.1-1.6,3.3-2.2
			c0.3-0.2,0.5-0.3,0.8-0.4c0.4-0.2,0.8-0.4,1.3-0.6c0.2-0.1,0.5-0.2,0.7-0.3c2.1-0.8,4.4-1.3,6.5-1.4c0.2,0,0.5,0,0.7,0
			c1.3,0,2.6,0.1,3.8,0.3c2.7,0.6,4.5,2,5.6,3.9c0,0,0,0.1,0,0.1c1.4,2,2.2,4.7,1.9,8.2c0,0.1,0,0.2,0,0.3c0,2.6-0.3,5.2-0.7,7.4
			c0,0.1,0,0.1,0,0.2C558.6,445.7,558.5,445.8,558.5,445.9z"/>
	</g>
</g>
<g id="yellow">
	<path class="st3" d="M497.1,483.8c0,0.7,0,1.4,0,2c0,0.2,0,0.3,0,0.5c0,0.2,0,0.5,0,0.7v0.1c0,0.3-0.1,0.7-0.1,1
		c0,0.3-0.1,0.6-0.1,0.9c0,0.1,0,0.2,0,0.3c0,0.3-0.1,0.6-0.2,0.9c-0.1,0.7-0.3,1.4-0.5,2.1c-0.1,0.3-0.2,0.7-0.3,1
		c-0.2,0.7-0.5,1.4-0.8,2.1c0,0,0,0.1,0,0.1c-0.3,0.7-0.6,1.3-1,1.9c-0.3,0.5-0.6,1-0.9,1.5c-0.1,0.2-0.3,0.5-0.5,0.7
		c-0.2,0.2-0.3,0.5-0.5,0.7c-0.2,0.4-0.5,0.7-0.8,1.1c-0.2,0.3-0.5,0.6-0.7,0.9c0,0,0,0.1-0.1,0.1c-0.1,0.1-0.2,0.2-0.2,0.3
		c-0.1,0.1-0.1,0.2-0.2,0.2c0,0-0.1,0-0.1,0.1c0,0-0.1,0-0.1,0.1c0,0,0,0,0,0c0,0,0,0.1-0.1,0.1v0h0c-0.5,0.6-1.1,1.2-1.7,1.7
		c-0.3,0.2-0.5,0.5-0.8,0.8c0,0-0.1,0.1-0.1,0.1c-0.3,0.3-0.6,0.5-0.9,0.8c-0.7,0.6-1.3,1.1-2,1.6c-0.1,0.1-0.2,0.2-0.4,0.3
		c-0.1,0.1-0.3,0.2-0.4,0.3c-0.3,0.2-0.5,0.4-0.8,0.6c0,0,0,0,0,0c-0.1,0-0.1,0.1-0.2,0.1c0,0,0,0,0,0c-0.2,0.1-0.4,0.3-0.6,0.4
		c-0.2,0.1-0.4,0.3-0.6,0.4c-0.1,0-0.1,0.1-0.2,0.1c-0.3,0.2-0.6,0.4-1,0.6c-5.4,3.4-13.4,6.6-19.8,7.9c0,0-0.1,0-0.1,0
		c-1.3,0.3-2.5,0.5-3.7,0.6c0,0-0.1,0-0.1,0h0c0,0,0,0-0.1,0c-0.2,0-0.4,0-0.6,0c-9.9,0.6-20.9-0.6-32.4-5.9
		c-0.4-0.2-0.9-0.4-1.3-0.6c-0.7-0.3-1.3-0.7-2-1c-0.4-0.2-0.9-0.5-1.3-0.7c-7.2-2.8-9.2-16.2-7.1-27.9c1.1-6.2,3.3-11.9,6.3-15.4
		c3.9,4.3,19.6,19.7,33,8.1c-24.4-10-31.5-20.6-31.6-20.7c1-1.5,2-3,3.1-4.6c0.4-0.5,0.7-1.1,1.1-1.6c0.4-0.5,0.7-1.1,1.1-1.6
		c0,0,0,0,0-0.1c1.1-1.6,2.1-3.3,3.2-4.9c1.1-1.8,2.2-3.6,3.3-5.4c0.5,0.2,1,0.4,1.5,0.5c1,0.4,2.1,0.7,3.2,1.1
		c0.1,0,0.2,0.1,0.4,0.1c0.5,0.2,1.1,0.3,1.6,0.5c1.3,0.4,2.6,0.7,4,1c0.5,0.1,1.1,0.2,1.6,0.4c0.7,0.1,1.3,0.3,2,0.4
		c0.2,0,0.4,0.1,0.5,0.1c1.9,0.3,3.8,0.6,5.6,0.8c0.6,0.1,1.2,0.1,1.8,0.2c0.6,0.1,1.2,0.1,1.7,0.1c1.1,0.1,2.2,0.1,3.2,0.1
		c2.7,0.1,5.1,0,7.3-0.2c0,0.1-0.1,0.2-0.1,0.3c-0.1,1.6,0.9,3.1,2.4,4.6c0.2,0.2,0.3,0.3,0.5,0.5c0,0,0.1,0.1,0.1,0.1
		c0.4,0.3,0.7,0.6,1.1,0.9c0.5,0.3,0.9,0.7,1.4,1c0.4,0.3,0.8,0.6,1.2,0.8c0.3,0.2,0.7,0.5,1.1,0.7c0,0,0,0,0,0
		c0.4,0.2,0.7,0.5,1.1,0.7c0.8,0.5,1.5,1,2.3,1.4c0.4,0.2,0.8,0.5,1.2,0.7c0,0,0.1,0.1,0.1,0.1c0,0,0,0,0,0c0.6,0.3,1.1,0.7,1.7,1
		c0,0,0,0,0.1,0c3.8,2.7,7.8,5.9,11,10.2c0,0,0,0,0,0.1c0.1,0.1,0.1,0.2,0.2,0.3c0.3,0.4,0.5,0.8,0.7,1.2c0.2,0.4,0.5,0.8,0.7,1.2
		c0.2,0.4,0.4,0.8,0.6,1.2c0.2,0.4,0.4,0.8,0.6,1.2c0.2,0.3,0.3,0.7,0.5,1c0.1,0.2,0.1,0.3,0.2,0.5c0.2,0.3,0.3,0.7,0.4,1
		c0.1,0.3,0.3,0.7,0.4,1c0.1,0.4,0.3,0.8,0.4,1.2c0.1,0.4,0.2,0.8,0.4,1.2c0.1,0.4,0.2,0.8,0.3,1.2c0.1,0.4,0.2,0.8,0.2,1.2
		c0.1,0.3,0.1,0.6,0.2,0.9c0,0.2,0.1,0.4,0.1,0.6c0,0.3,0.1,0.6,0.1,0.9c0,0.3,0.1,0.7,0.1,1C497.1,483,497.1,483.4,497.1,483.8z"/>
	<path class="st3" d="M891.5,505.1c-0.4,3.1-0.8,6.3-1.3,9.4c-12.5,7.1-29.7,10.7-39.4-2.5c-0.4,0.2-3.7,2.2-5,2.9v0
		c-1.1,0.6-2.2,1.2-3.3,1.7c-1.6,0.8-3.3,1.5-5,2.1v0c-11.2,3.8-24.1,4.1-35.2-0.2c-0.7-18.2-6.9-36.8-19.1-48.7c0,0,0,0,0,0
		c3.5-2.7,5.8-9.3,7.5-14c11.8-0.5,25.6-4,35-9.2c-0.8,9.9-0.3,20,1.6,29.7h0c5.9-3.8,13.3-8.5,18.3-12.2c-3-10.6-4-16.6-5.2-25
		c18.8-7.7,29.1,9.1,49.8,7.9C893.6,465.6,893.5,487.3,891.5,505.1z"/>
	<path class="st3" d="M782.6,517.7c-7.5-0.3-14.7,2.5-22.1,2.4c0,0,0,0,0,0c-10.9-0.8-15.3-11.6-22.6-18.2c-0.9,4.9,2.1,13-1.8,16.5
		c-10,0.5-21.1,1.3-31,0.2c6-15.4,5.1-34.5,5.6-46.7c0.8-13.1,0.2-22.8-0.9-31.6c6.6-0.8,11.7-1,16.6-0.3
		c-13.7,19.4,22.5,33.2,25.3,9.2c5.8,3,16.6,5.9,25.5,6.5c-1.9,5.5-6.1,9.4-9.9,13.3C770.7,476.9,799.1,515.5,782.6,517.7z"/>
	<path class="st3" d="M697.4,472.9c-0.7,9.8-1.1,20.7-3.5,32.2c-1.8,6.7-0.7,16-10.1,16.5c-9,1.5-18.7,1.5-25.4-5.6
		c-17.4,10.9-36.1,12.5-49.2-4.1c3.2-24.5,2.6-43.5-4.1-71.7c1.3,0.2,2.5,0.4,3.6,0.6c0.5,0.1,0.9,0.2,1.3,0.2c1,0.2,2,0.4,2.9,0.6
		h0c0.7,0.1,1.3,0.3,1.9,0.4c1.3,0.3,2.6,0.6,3.8,0.9c0.4,0.1,0.8,0.2,1.2,0.3c0.8,0.2,1.5,0.4,2.3,0.7c0.4,0.1,0.8,0.2,1.1,0.3
		c0.5,0.2,1,0.3,1.6,0.5l0.5,0.2c0.1,0,0.3,0.1,0.5,0.2c0.4,0.1,0.8,0.3,1.1,0.4c0.1,0,0.3,0.1,0.4,0.2c0.4,0.1,0.8,0.3,1.2,0.4
		c1.7,0.6,3.4,1.3,5.2,2c0,0,0,0,0,0c-1.9,9.9,3.3,19.2,11.9,23.5c0.6,0.2,1.2,0.2,1.8,0.1c2.2-0.5,3.7-2.8,5.1-4.4c0,0,0,0,0,0
		c0.4-0.5,0.8-1,1.2-1.6c0.4-0.5,0.7-1.1,1.1-1.6c0.8-1.2,1.4-2.5,1.9-3.9c1.1-3,1.5-6.6,0.9-10.1c0.7-0.2,1.4-0.3,2.1-0.5
		c0.5-0.1,1-0.2,1.6-0.4c0.2,0,0.3-0.1,0.5-0.1c0.5-0.1,1-0.2,1.5-0.3c0.3-0.1,0.6-0.1,0.8-0.2c0.5-0.1,1-0.2,1.6-0.4
		c0.2,0,0.4-0.1,0.5-0.1c0.6-0.1,1.2-0.3,1.8-0.4c5.1-1.2,10.8-2.4,16.5-3.5c1.5-0.3,3-0.6,4.4-0.8c1.2-0.2,2.5-0.4,3.7-0.6
		c1.7-0.3,3.3-0.5,4.9-0.8C698.6,452.1,698.5,456.7,697.4,472.9z"/>
	<path class="st3" d="M417.6,431.1c-4,5.8-9.3,10.9-14.4,16.2c-0.1,0.1-0.2,0.2-0.3,0.3c-5.5,5.6-10.6,11.4-13.4,18.1c0,0,0,0,0,0
		c-1.8,4.4-2.6,9.3-1.7,14.9c0.2,1.2,0.4,2.5,0.6,3.7c0.1,0.7,0.2,1.4,0.3,2.1c0.1,0.5,0.1,1.1,0.2,1.6c0.1,0.7,0.1,1.3,0.2,2
		c0.2,2.5,0.4,5,0.5,7.4c0,0.8,0.1,1.7,0.1,2.5c0,0,0,0,0,0c0.1,1.3,0.1,2.7,0.2,4c0,0.9,0.1,1.9,0.1,2.8c0.1,1.2,0.1,2.5,0.2,3.7
		c0,0.2,0,0.3,0,0.5c0,0.3,0,0.7,0,1c0,0.2,0,0.4-0.1,0.6c0,0.3-0.1,0.5-0.1,0.8c0,0.1,0,0.1,0,0.2c-0.1,0.2-0.1,0.3-0.2,0.5
		c-0.1,0.1-0.1,0.2-0.2,0.4c0,0.1-0.1,0.2-0.2,0.2c0,0,0,0,0,0c-0.1,0.1-0.2,0.2-0.2,0.3c-0.1,0.1-0.2,0.2-0.3,0.3
		c-7.9,3.5-25.5,4.9-38.2,2.5c-0.6-0.1-1.1-0.2-1.7-0.4c-1.1-0.3-2.2-0.6-3.2-0.9c-1.8-0.6-3.4-1.3-4.7-2.1
		c-0.8-0.5-1.5-0.9-2.1-1.5c-1.1-14.4,2.1-29.7,3.2-44.2c0.2-0.9,0.2-1.7,0.1-2.5c0-0.5-0.1-0.9-0.2-1.4c0,0,0,0,0-0.1
		c-0.1-0.4-0.2-0.8-0.4-1.2c0,0,0-0.1,0-0.1c-0.1-0.2-0.2-0.4-0.3-0.6c-0.3-0.6-0.7-1.2-1.1-1.8c0,0,0,0,0,0c-0.3-0.3-0.5-0.7-0.8-1
		c-0.4-0.5-0.8-0.9-1.3-1.4c-0.4-0.5-0.9-0.9-1.4-1.4c-0.2-0.2-0.5-0.5-0.7-0.7c-0.4-0.4-0.7-0.7-1.1-1.1c-0.2-0.2-0.5-0.5-0.7-0.7
		c-0.2-0.2-0.4-0.5-0.6-0.8c0,0,0,0,0,0c-0.3-0.4-0.7-0.8-1-1.1c-0.4-0.4-0.7-0.8-1-1.1c0,0,0,0,0-0.1c-0.8-4.2-1.7-8.8-2.8-13.3
		c0,0,0,0,0-0.1c-0.4-1.6-0.8-3.2-1.2-4.8c2.9-1.1,6.1-1.6,9.7-1c9.9,1.6,8.6,8.7,18.2,10.6c15.9,1.4,25.2-10.9,35.8-16.5
		c0.3-0.2,0.6-0.3,0.9-0.5c0.6-0.3,1.3-0.6,1.9-0.8c0.3-0.1,0.6-0.2,1-0.3c3.6-1.2,7.4-1.5,11.7-0.1c0.3,0.1,0.7,0.2,1,0.3
		C410.6,426.3,413.9,428.2,417.6,431.1z"/>
	<path class="st3" d="M321.2,487.6c0,6.3-0.3,12.7-0.9,19c0.1,7.9-9.5,9.8-15.3,11.6c-28.2,4.5-21.8-3.4-22.5-26
		c-6.4,5-13.3,6-19.9-0.6c0.9,9.4,6.7,18.9,0,25.9c-8.3,5.4-18.8,6.5-28.1,3c5.9-19.8,5.1-42.5-5.4-61.7c12,2.2,17.5-8.6,27.1-14.2
		c2.5,5.3,1.7,18.2,8.9,17.5c15.5-0.1,15.4-0.9,17.6-16.1c9.1,6,24.3,2,32.1-4.6C319.1,456.4,321.2,472,321.2,487.6z"/>
	<path class="st3" d="M224,507c-0.5,12.9-14.3,10.3-23.4,11.7c-23.6,1.1-49.4,1.2-71.5-7.2c0,0,0,0,0,0c-3.9-6.6-1.6-16.6-3-24.2
		c13.4-7,19-22.7,18.7-37.3c16.5,13.7,27.5-3.2,39.8-12c-1,9.9-0.6,19.3-2.8,29.1c10.1,1.6,33.4-5.7,38.8,2.7
		C224.5,472.9,225.3,498.8,224,507z"/>
	<path class="st3" d="M129.8,437.1c-2.3-11.1-28.9-10.1-37.7-8.6C52,433,50.2,448,23.7,456.1c0.7,5.8,2.8,10.6,8.7,6.6
		c2.4,14.6,3.8,28.6,5.6,43.2c0.9,4.9-0.2,13.1,5,15.2c12.4,4.1,25.9,3.3,38.1-0.5c3.7-1.1,6.4-4.5,6.5-8.4
		c0.2-5.3-1.8-11.1-1.8-16.1c-1.9-7.6,5.6-7.6,11.2-8.9C113.3,483.6,136.8,470.4,129.8,437.1z M91.4,452.1c-1.4,1.2-2.8,2.3-4.3,3.3
		c-17.9,9.8-18.6-0.6-22.7-15.4C71.9,433,100,441.1,91.4,452.1z"/>
	<path class="st3" d="M597,487.1c0,0.3,0,0.6,0,0.9c-0.3,3.4-0.3,6.4-0.3,9.1v0.1c-0.2,3-0.4,6-0.7,8.9c0,0.3,0,0.6,0,0.9
		c0,0,0,0,0,0c-0.8,3-2.4,5.4-5.7,7.4c-3.1,1.6-6.8,2.5-9.6,3.3c-28.2,4.5-21.8-3.4-22.5-26c-6.3,5.3-14.2,5.5-19.9-0.6
		c0.5,2.6,1,5.1,1.5,7.4c0,0,0,0,0,0c0.1,0.4,0.1,0.9,0.2,1.3c0.1,0.4,0.2,0.8,0.2,1.2c0,0.1,0,0.2,0,0.3c0.1,0.4,0.2,0.8,0.2,1.2
		c0,0.2,0.1,0.5,0.1,0.7c0,0.2,0.1,0.5,0.1,0.7c0.1,0.7,0.3,1.4,0.4,2.1c0,0.3,0.1,0.6,0.1,0.9c0,0.4,0.1,0.9,0.1,1.3
		c0,0.6,0,1.3,0,1.9c0,0.2,0,0.4,0,0.6c0,0.2,0,0.4-0.1,0.6c0,0.2,0,0.3-0.1,0.5c0,0.1,0,0.2-0.1,0.3c0,0.1-0.1,0.3-0.1,0.4
		c-0.1,0.4-0.2,0.8-0.4,1.2c0,0,0,0,0,0c-0.1,0.2-0.2,0.4-0.3,0.6c0,0,0,0,0,0c-0.1,0.2-0.2,0.4-0.3,0.6c-0.1,0.2-0.2,0.3-0.3,0.4
		c-0.1,0.1-0.1,0.2-0.2,0.3c-0.5,0.6-1,1.1-1.7,1.6c-0.2,0.1-0.3,0.2-0.5,0.3c0,0-0.1,0-0.1,0.1c-0.1,0-0.1,0.1-0.2,0.1
		c-0.2,0.1-0.4,0.2-0.7,0.4c-0.3,0.2-0.7,0.4-1,0.5c-2.4,1.2-5.2,2.1-8.1,2.8c-0.5,0.1-0.9,0.2-1.4,0.3c-0.1,0-0.3,0.1-0.4,0.1
		c-7.5,1.3-15.2,0.2-19.1-5.4c-0.5-1.1-1-2.4-1.4-3.8c1.2-1.6,2.2-3.2,3.1-4.9c8.2-14.7,3.8-39.5-8.4-51.2c0,0-0.1-0.1-0.1-0.1
		c-0.3-0.3-0.4-0.4-0.4-0.4c0,0,0,0,0,0c0.1,0.1,0.3,0.2,0.4,0.3c0.3,0.2,0.6,0.4,1,0.5l0,0c1.7,1,3.4,1.5,5,1.8
		c8.2,0.9,15.2-5.8,22.1-11.3c0.2-0.2,0.4-0.3,0.6-0.5c0.5-0.4,0.9-0.7,1.4-1.1c0.5-0.4,1-0.7,1.5-1.1c0.2-0.1,0.4-0.3,0.6-0.4
		c0,0,0.1-0.1,0.2-0.1c0.9,1.8,1.4,4.5,1.9,7.2c0,0,0,0,0,0.1c0.5,2.8,1.1,5.5,2.3,7.5c0.7,1.3,1.7,2.2,3,2.6c0,0,0,0,0,0
		c0.4,0.1,0.9,0.2,1.4,0.1h0c0.1,0,0.2,0,0.3,0c0.5,0,0.9,0,1.3,0h0c4,0,7-0.2,9.1-0.7c0,0,0,0,0,0c2.7-0.7,4.1-1.9,5.1-4.4
		c0,0,0,0,0,0c0.9-2.3,1.3-5.6,2-10.4l0-0.2c0-0.1,0-0.2,0-0.3c0.4,0.2,0.8,0.5,1.2,0.7c0.4,0.2,0.8,0.4,1.2,0.6h0
		c0.4,0.2,0.9,0.3,1.3,0.5c0,0,0,0,0,0c0.4,0.1,0.9,0.3,1.4,0.4c0,0,0,0,0,0c0.5,0.1,0.9,0.2,1.4,0.3c0.5,0.1,1,0.2,1.4,0.2
		c0.5,0.1,1,0.1,1.5,0.1c8.1,0.5,17.2-2.9,22.6-7.5c0.8,2.8,1.5,5.5,2.1,8.3c0,0.1,0,0.1,0,0.2c2.4,10.3,3.7,20.9,4.1,31.4
		c0,0.2,0,0.3,0,0.5C597,483.3,597,485.2,597,487.1z"/>
	<path class="st3" d="M981.8,489.8c0,0.4,0.1,0.7,0.1,1.1c0.1,3.3-0.3,6.5-1.4,9.5c-2.1,6.2-6.6,11.7-13.1,16.2c0,0,0,0-0.1,0
		c-0.5,0.3-0.9,0.6-1.4,1c-6.7,4.6-15,8.1-24.6,9.2c-11,1.3-23.5-0.6-36.6-7.4c-0.4-0.2-0.9-0.5-1.3-0.7c4.3-12.9,4.4-26,4-38.8
		c6.2,5.2,16.5,11.2,26,4.9c0,0,0,0,0,0c0.3-0.2,0.6-0.4,0.9-0.6c0.2-0.1,0.5-0.3,0.7-0.5c0.2-0.1,0.3-0.3,0.5-0.4
		c0,0-0.1,0-0.2-0.1c0,0,0.1,0,0.1-0.1c-10-5.5-18.2-8.1-25.9-15.3h0c-1.1-1.1-2.2-2.2-3.1-3.5c-0.1-1.6-0.2-3.2-0.4-5
		c-0.4-4.9-0.8-10.2-1.2-15c0.6-0.1,1.3-0.3,1.9-0.4c0.9-0.2,1.8-0.4,2.7-0.6c0.2,0,0.4-0.1,0.7-0.2c1.3-0.3,2.5-0.6,3.8-0.9
		c2.9-0.7,5.7-1.4,8.4-2.1c0.9-0.2,1.7-0.5,2.6-0.7c0.8-0.2,1.7-0.5,2.5-0.7c1.2-0.3,2.5-0.7,3.7-1c0.4-0.1,0.9-0.2,1.3-0.4
		c0.9-0.2,1.7-0.5,2.6-0.7c0.4-0.1,0.8-0.2,1.3-0.4c1.7-0.5,3.3-0.9,4.8-1.4c0.4-0.1,0.7-0.2,1.1-0.3c0.7-0.2,1.3-0.4,2-0.6
		c0,0,0,0,0,0c0.6-0.2,1.2-0.3,1.8-0.5c0.1,0,0.2,0,0.3-0.1c0.9-0.2,1.8-0.5,2.7-0.7c2.9-0.8,5.6-1.5,8.2-2c0.4-0.1,0.9-0.2,1.3-0.3
		c0.3-0.1,0.7-0.1,1-0.2c0.4-0.1,0.8-0.2,1.3-0.2c0.9-0.2,1.8-0.3,2.7-0.5c0.8-0.1,1.6-0.2,2.3-0.3c0.3,0,0.5-0.1,0.8-0.1
		c3.9-0.4,7.7-0.4,11.5,0.1c0,0,0,0,0,0c0.8,0.1,1.7,0.2,2.5,0.4c0.4,0.1,0.8,0.2,1.3,0.3c-3,8.8-7.7,17-13.7,24.1
		c-0.4,0.5-1.2,0.4-1.4-0.2c-3.2-8.7-11.1-11.8-15.3-6.9c-3.9,6.3,4.3,9.5,13.2,15.6c0,0,0.1,0,0.1,0.1c3.9,2.7,7.8,5.9,11,10.2
		c0.1,0.1,0.1,0.2,0.2,0.3C979.5,479.1,981.4,484.6,981.8,489.8z"/>
</g>
</svg>
